<svg width="690" height="690" viewBox="0 0 690 690" fill="none" xmlns="http://www.w3.org/2000/svg">
<path d="M368.081 129.911C428.753 129.911 480.258 151.191 523.057 193.965L455.334 260.353C454.538 259.365 453.692 258.374 452.769 257.448C429.521 232.279 401.256 219.551 368.081 219.551C335.404 219.551 307.31 232.296 283.892 257.471L283.887 257.477C260.636 282.663 249.191 312.981 249.191 348.485C249.191 383.985 260.633 414.481 283.892 439.498L283.892 439.499C307.31 464.674 335.404 477.419 368.081 477.419C401.266 477.419 429.538 464.683 452.79 439.499C454.909 437.239 456.797 434.985 458.531 432.844L531.048 494.71C528.531 497.579 525.883 500.352 523.098 503.137C480.294 545.936 428.776 567.059 368.081 567.059C307.91 567.059 256.565 545.939 213.758 503.137C171.121 460.332 149.829 408.991 149.829 348.832C149.829 288.147 171.125 236.634 213.758 194.006C256.568 151.201 307.915 129.911 368.081 129.911Z" stroke="white" stroke-width="4"/>
<path d="M688 270L688 0" stroke="#EEFF00" stroke-width="4"/>
<path d="M45.6797 688H80.365" stroke="#EEFF00" stroke-width="4"/>
<path d="M133.433 688H231.072" stroke="#EEFF00" stroke-width="4"/>
<path d="M575.676 688H541.685" stroke="#EEFF00" stroke-width="4"/>
<path d="M661.867 688H644.524" stroke="#EEFF00" stroke-width="4"/>
<path d="M29 2L0 2" stroke="#EEFF00" stroke-width="4"/>
<path d="M201.767 2H184.424" stroke="#EEFF00" stroke-width="4"/>
<path d="M510.812 2H271.137" stroke="#EEFF00" stroke-width="4"/>
<path d="M81.4051 2H46.7197" stroke="#EEFF00" stroke-width="4"/>
<path d="M2 86.8366V1" stroke="#EEFF00" stroke-width="4"/>
<path d="M1.99999 690L2 450" stroke="#EEFF00" stroke-width="4"/>
<path d="M688 690L688 573" stroke="#EEFF00" stroke-width="4"/>
<path d="M687.707 531.082V487.037" stroke="#EEFF00" stroke-width="4"/>
<path d="M397.219 688H468.497" stroke="#EEFF00" stroke-width="4"/>
<path d="M687.706 2H561.278" stroke="#EEFF00" stroke-width="4"/>
<path d="M544.28 2H526.938" stroke="#EEFF00" stroke-width="4"/>
<path d="M687.707 370.505V290.391" stroke="#EEFF00" stroke-width="4"/>
</svg>
