<svg width="690" height="690" fill="none" xmlns="http://www.w3.org/2000/svg"><path d="M368.081 129.911c60.672 0 112.177 21.28 154.976 64.054l-67.723 66.388c-.796-.988-1.642-1.979-2.565-2.905-23.248-25.169-51.513-37.897-84.688-37.897-32.677 0-60.771 12.745-84.189 37.92l-.005.006c-23.251 25.186-34.696 55.504-34.696 91.008 0 35.5 11.442 65.996 34.701 91.013v.001c23.418 25.175 51.512 37.92 84.189 37.92 33.185 0 61.457-12.736 84.709-37.92 2.119-2.26 4.007-4.514 5.741-6.655l72.517 61.866c-2.517 2.869-5.165 5.642-7.95 8.427-42.804 42.799-94.322 63.922-155.017 63.922-60.171 0-111.516-21.12-154.323-63.922-42.637-42.805-63.929-94.146-63.929-154.305 0-60.685 21.296-112.198 63.929-154.826 42.81-42.805 94.157-64.095 154.323-64.095z" stroke="#fff" stroke-width="4"/><path d="M688 270V0M45.68 688h34.685m53.068 0h97.639m344.604 0h-33.991m120.182 0h-17.343M29 2H0m201.767 0h-17.343m326.388 0H271.137M81.405 2H46.72M2 86.837V1m0 689V450m686 240V573m-.293-41.918v-44.045M397.219 688h71.278M687.706 2H561.278M544.28 2h-17.342m160.769 368.505v-80.114" stroke="#EF0" stroke-width="4"/></svg>