<svg width="626" height="699" fill="none" xmlns="http://www.w3.org/2000/svg"><path d="M624 275.384V1M41.332 696.913h31.479m-31.479 0h31.479m48.163 0h88.612m-88.612 0h88.612m312.741 0h-30.849m30.849 0h-30.849m109.07-.175h-15.739m15.739 0h-15.739M25.49 2.925H1m181.985-.365h-15.739m296.213 0H245.942m-172.186 0H42.277M2.142 92.496V5.548M2 699V456.486m622 241.827V580.835m0 117.478V580.835m0-42.007v-44.616m0 44.616v-44.616M360.367 696.913h64.689m-64.689 0h64.689M624.001 2.56H509.262m-15.426.176h-15.739M624 376.173v-81.152m0 81.152v-81.152" stroke="#EF0" stroke-width="4"/></svg>