<svg width="726" height="393" viewBox="0 0 726 393" fill="none" xmlns="http://www.w3.org/2000/svg">
<path d="M577.611 153.056L577.611 1" stroke="#EEFF00" stroke-width="4"/>
<path d="M38.7485 390.84H67.8605" stroke="#EEFF00" stroke-width="4"/>
<path d="M112.402 390.84H194.353" stroke="#EEFF00" stroke-width="4"/>
<path d="M483.581 390.84H455.051" stroke="#EEFF00" stroke-width="4"/>
<path d="M555.922 390.84H541.366" stroke="#EEFF00" stroke-width="4"/>
<path d="M24.6488 2.16016L2 2.16016" stroke="#EEFF00" stroke-width="4"/>
<path d="M169.751 2.16016H155.195" stroke="#EEFF00" stroke-width="4"/>
<path d="M429.14 2.16016H227.976" stroke="#EEFF00" stroke-width="4"/>
<path d="M68.7341 2.16016H39.6221" stroke="#EEFF00" stroke-width="4"/>
<path d="M3.10498 52.0504L3.10498 1.58008" stroke="#EEFF00" stroke-width="4"/>
<path d="M2.55224 392L2.55225 253.932" stroke="#EEFF00" stroke-width="4"/>
<path d="M577.611 392V322.791" stroke="#EEFF00" stroke-width="4"/>
<path d="M577.611 392V322.791" stroke="#EEFF00" stroke-width="4"/>
<path d="M577.611 299.43V274.705" stroke="#EEFF00" stroke-width="4"/>
<path d="M577.611 299.43V274.705" stroke="#EEFF00" stroke-width="4"/>
<path d="M333.797 390.84H393.623" stroke="#EEFF00" stroke-width="4"/>
<path d="M577.611 2.16016H471.498" stroke="#EEFF00" stroke-width="4"/>
<path d="M457.233 2.16016H442.677" stroke="#EEFF00" stroke-width="4"/>
<path d="M577.611 209.291V164.319" stroke="#EEFF00" stroke-width="4"/>
<path d="M577.611 209.291V164.319" stroke="#EEFF00" stroke-width="4"/>
<path d="M724 154.731L724 51.4702" stroke="#EEFF00" stroke-width="4"/>
<path d="M493.424 313.12H505.881" stroke="#EEFF00" stroke-width="4"/>
<path d="M493.424 313.12H505.881" stroke="#EEFF00" stroke-width="4"/>
<path d="M524.939 313.12H560.005" stroke="#EEFF00" stroke-width="4"/>
<path d="M524.939 313.12H560.005" stroke="#EEFF00" stroke-width="4"/>
<path d="M683.765 313.12H671.557" stroke="#EEFF00" stroke-width="4"/>
<path d="M714.72 313.055H708.491" stroke="#EEFF00" stroke-width="4"/>
<path d="M487.016 52.6306L477.073 52.6306" stroke="#EEFF00" stroke-width="4"/>
<path d="M549.479 52.6306H543.25" stroke="#EEFF00" stroke-width="4"/>
<path d="M660.469 52.6306H574.393" stroke="#EEFF00" stroke-width="4"/>
<path d="M506.255 52.6306H493.798" stroke="#EEFF00" stroke-width="4"/>
<path d="M478.178 314.12L478.178 223.067" stroke="#EEFF00" stroke-width="4"/>
<path d="M724 314.12L724 269.761" stroke="#EEFF00" stroke-width="4"/>
<path d="M724 253.899V237.186" stroke="#EEFF00" stroke-width="4"/>
<path d="M619.674 313.12H645.273" stroke="#EEFF00" stroke-width="4"/>
<path d="M619.674 313.12H645.273" stroke="#EEFF00" stroke-width="4"/>
<path d="M724 52.6306H678.595" stroke="#EEFF00" stroke-width="4"/>
<path d="M672.491 52.6306H666.263" stroke="#EEFF00" stroke-width="4"/>
<path d="M724 192.966V162.565" stroke="#EEFF00" stroke-width="4"/>
</svg>
