<svg width="1310" height="674" viewBox="0 0 1310 674" fill="none" xmlns="http://www.w3.org/2000/svg">
<path d="M267 262.112L267 0" stroke="#EEFF00" stroke-width="4"/>
<path d="M1242.48 672H1189.78" stroke="#EEFF00" stroke-width="4"/>
<path d="M1109.14 672H960.794" stroke="#EEFF00" stroke-width="4"/>
<path d="M437.218 672H488.864" stroke="#EEFF00" stroke-width="4"/>
<path d="M306.262 672H332.612" stroke="#EEFF00" stroke-width="4"/>
<path d="M1268 2L1309 2" stroke="#EEFF00" stroke-width="4"/>
<path d="M1005.33 2H1031.68" stroke="#EEFF00" stroke-width="4"/>
<path d="M535.771 2H899.928" stroke="#EEFF00" stroke-width="4"/>
<path d="M1188.19 2H1240.89" stroke="#EEFF00" stroke-width="4"/>
<path d="M1307 88L1307 1" stroke="#EEFF00" stroke-width="4"/>
<path d="M1308 674L1308 436" stroke="#EEFF00" stroke-width="4"/>
<path d="M267 674V554.698" stroke="#EEFF00" stroke-width="4"/>
<path d="M267 674V554.698" stroke="#EEFF00" stroke-width="4"/>
<path d="M267 514.429V471.809" stroke="#EEFF00" stroke-width="4"/>
<path d="M267 514.429V471.809" stroke="#EEFF00" stroke-width="4"/>
<path d="M708.364 672H600.066" stroke="#EEFF00" stroke-width="4"/>
<path d="M267 2H459.092" stroke="#EEFF00" stroke-width="4"/>
<path d="M484.914 2H511.265" stroke="#EEFF00" stroke-width="4"/>
<path d="M267 359.048V281.527" stroke="#EEFF00" stroke-width="4"/>
<path d="M267 359.048V281.527" stroke="#EEFF00" stroke-width="4"/>
<path d="M1.99999 265L2 87" stroke="#EEFF00" stroke-width="4"/>
<path d="M419.4 538.028H396.85" stroke="#EEFF00" stroke-width="4"/>
<path d="M419.4 538.028H396.85" stroke="#EEFF00" stroke-width="4"/>
<path d="M362.349 538.028H298.87" stroke="#EEFF00" stroke-width="4"/>
<path d="M362.349 538.028H298.87" stroke="#EEFF00" stroke-width="4"/>
<path d="M74.8355 538.028H96.9346" stroke="#EEFF00" stroke-width="4"/>
<path d="M18.8002 537.915H30.0752" stroke="#EEFF00" stroke-width="4"/>
<path d="M431 89L449 89" stroke="#EEFF00" stroke-width="4"/>
<path d="M317.926 89H329.201" stroke="#EEFF00" stroke-width="4"/>
<path d="M117.006 89H272.826" stroke="#EEFF00" stroke-width="4"/>
<path d="M396.174 89H418.724" stroke="#EEFF00" stroke-width="4"/>
<path d="M447 148V91" stroke="#EEFF00" stroke-width="4"/>
<path d="M447 539.752L447 382.796" stroke="#EEFF00" stroke-width="4"/>
<path d="M2 539.752L2 463.286" stroke="#EEFF00" stroke-width="4"/>
<path d="M2 435.944V407.133" stroke="#EEFF00" stroke-width="4"/>
<path d="M190.857 538.028H144.517" stroke="#EEFF00" stroke-width="4"/>
<path d="M190.857 538.028H144.517" stroke="#EEFF00" stroke-width="4"/>
<path d="M2.00057 89H84.1953" stroke="#EEFF00" stroke-width="4"/>
<path d="M95.2444 89H106.52" stroke="#EEFF00" stroke-width="4"/>
<path d="M2 330.908V278.504" stroke="#EEFF00" stroke-width="4"/>
</svg>
