<svg width="1310" height="674" viewBox="0 0 1310 674" fill="none" xmlns="http://www.w3.org/2000/svg">
<path d="M1043 262.112L1043 0" stroke="#EEFF00" stroke-width="4"/>
<path d="M67.5234 672H120.223" stroke="#EEFF00" stroke-width="4"/>
<path d="M200.855 672H349.206" stroke="#EEFF00" stroke-width="4"/>
<path d="M872.782 672H821.136" stroke="#EEFF00" stroke-width="4"/>
<path d="M1003.74 672H977.388" stroke="#EEFF00" stroke-width="4"/>
<path d="M42 2L1 2" stroke="#EEFF00" stroke-width="4"/>
<path d="M304.672 2H278.322" stroke="#EEFF00" stroke-width="4"/>
<path d="M774.229 2H410.072" stroke="#EEFF00" stroke-width="4"/>
<path d="M121.805 2H69.1055" stroke="#EEFF00" stroke-width="4"/>
<path d="M3 88L3 1" stroke="#EEFF00" stroke-width="4"/>
<path d="M1.99999 674L2 436" stroke="#EEFF00" stroke-width="4"/>
<path d="M1043 674V554.698" stroke="#EEFF00" stroke-width="4"/>
<path d="M1043 674V554.698" stroke="#EEFF00" stroke-width="4"/>
<path d="M1043 514.429V471.809" stroke="#EEFF00" stroke-width="4"/>
<path d="M1043 514.429V471.809" stroke="#EEFF00" stroke-width="4"/>
<path d="M601.636 672H709.934" stroke="#EEFF00" stroke-width="4"/>
<path d="M1043 2H850.908" stroke="#EEFF00" stroke-width="4"/>
<path d="M825.086 2H798.735" stroke="#EEFF00" stroke-width="4"/>
<path d="M1043 359.048V281.527" stroke="#EEFF00" stroke-width="4"/>
<path d="M1043 359.048V281.527" stroke="#EEFF00" stroke-width="4"/>
<path d="M1308 265L1308 87" stroke="#EEFF00" stroke-width="4"/>
<path d="M890.6 538.028H913.15" stroke="#EEFF00" stroke-width="4"/>
<path d="M890.6 538.028H913.15" stroke="#EEFF00" stroke-width="4"/>
<path d="M947.651 538.028H1011.13" stroke="#EEFF00" stroke-width="4"/>
<path d="M947.651 538.028H1011.13" stroke="#EEFF00" stroke-width="4"/>
<path d="M1235.16 538.028H1213.07" stroke="#EEFF00" stroke-width="4"/>
<path d="M1291.2 537.915H1279.92" stroke="#EEFF00" stroke-width="4"/>
<path d="M879 89L861 89" stroke="#EEFF00" stroke-width="4"/>
<path d="M992.074 89H980.799" stroke="#EEFF00" stroke-width="4"/>
<path d="M1192.99 89H1037.17" stroke="#EEFF00" stroke-width="4"/>
<path d="M913.826 89H891.276" stroke="#EEFF00" stroke-width="4"/>
<path d="M863 539.752L863 382.796" stroke="#EEFF00" stroke-width="4"/>
<path d="M1308 539.752L1308 463.286" stroke="#EEFF00" stroke-width="4"/>
<path d="M1308 435.944V407.133" stroke="#EEFF00" stroke-width="4"/>
<path d="M1119.14 538.028H1165.48" stroke="#EEFF00" stroke-width="4"/>
<path d="M1119.14 538.028H1165.48" stroke="#EEFF00" stroke-width="4"/>
<path d="M1308 89H1225.8" stroke="#EEFF00" stroke-width="4"/>
<path d="M1214.76 89H1203.48" stroke="#EEFF00" stroke-width="4"/>
<path d="M1308 330.908V278.504" stroke="#EEFF00" stroke-width="4"/>
</svg>
