<svg width="726" height="393" viewBox="0 0 726 393" fill="none" xmlns="http://www.w3.org/2000/svg">
<path d="M148.389 153.056L148.389 1" stroke="#EEFF00" stroke-width="4"/>
<path d="M687.252 390.84H658.14" stroke="#EEFF00" stroke-width="4"/>
<path d="M613.598 390.84H531.647" stroke="#EEFF00" stroke-width="4"/>
<path d="M242.419 390.84H270.949" stroke="#EEFF00" stroke-width="4"/>
<path d="M170.078 390.84H184.634" stroke="#EEFF00" stroke-width="4"/>
<path d="M701.351 2.16016L724 2.16016" stroke="#EEFF00" stroke-width="4"/>
<path d="M556.248 2.16016H570.804" stroke="#EEFF00" stroke-width="4"/>
<path d="M296.86 2.16016H498.024" stroke="#EEFF00" stroke-width="4"/>
<path d="M657.266 2.16016H686.378" stroke="#EEFF00" stroke-width="4"/>
<path d="M722.895 52.0504L722.895 1.58008" stroke="#EEFF00" stroke-width="4"/>
<path d="M723.448 392L723.448 253.932" stroke="#EEFF00" stroke-width="4"/>
<path d="M148.389 392V322.791" stroke="#EEFF00" stroke-width="4"/>
<path d="M148.389 392V322.791" stroke="#EEFF00" stroke-width="4"/>
<path d="M148.389 299.43V274.705" stroke="#EEFF00" stroke-width="4"/>
<path d="M148.389 299.43V274.705" stroke="#EEFF00" stroke-width="4"/>
<path d="M392.203 390.84H332.377" stroke="#EEFF00" stroke-width="4"/>
<path d="M148.389 2.16016H254.502" stroke="#EEFF00" stroke-width="4"/>
<path d="M268.767 2.16016H283.323" stroke="#EEFF00" stroke-width="4"/>
<path d="M148.389 209.291V164.319" stroke="#EEFF00" stroke-width="4"/>
<path d="M148.389 209.291V164.319" stroke="#EEFF00" stroke-width="4"/>
<path d="M2 154.731L2 51.4702" stroke="#EEFF00" stroke-width="4"/>
<path d="M232.576 313.12H220.119" stroke="#EEFF00" stroke-width="4"/>
<path d="M232.576 313.12H220.119" stroke="#EEFF00" stroke-width="4"/>
<path d="M201.06 313.12H165.994" stroke="#EEFF00" stroke-width="4"/>
<path d="M201.06 313.12H165.994" stroke="#EEFF00" stroke-width="4"/>
<path d="M42.2351 313.12H54.4429" stroke="#EEFF00" stroke-width="4"/>
<path d="M11.2803 313.055H17.5088" stroke="#EEFF00" stroke-width="4"/>
<path d="M238.984 52.6304L248.927 52.6304" stroke="#EEFF00" stroke-width="4"/>
<path d="M176.521 52.6304H182.749" stroke="#EEFF00" stroke-width="4"/>
<path d="M65.5301 52.6304H151.607" stroke="#EEFF00" stroke-width="4"/>
<path d="M219.745 52.6304H232.202" stroke="#EEFF00" stroke-width="4"/>
<path d="M247.822 86.8578V53.791" stroke="#EEFF00" stroke-width="4"/>
<path d="M247.822 314.12L247.822 223.067" stroke="#EEFF00" stroke-width="4"/>
<path d="M2 314.12L2 269.761" stroke="#EEFF00" stroke-width="4"/>
<path d="M2 253.899V237.185" stroke="#EEFF00" stroke-width="4"/>
<path d="M106.327 313.12H80.7278" stroke="#EEFF00" stroke-width="4"/>
<path d="M106.327 313.12H80.7278" stroke="#EEFF00" stroke-width="4"/>
<path d="M2.00007 52.6304H47.4053" stroke="#EEFF00" stroke-width="4"/>
<path d="M53.5093 52.6304H59.7378" stroke="#EEFF00" stroke-width="4"/>
<path d="M2 192.966V162.565" stroke="#EEFF00" stroke-width="4"/>
</svg>
