<svg width="690" height="690" fill="none" xmlns="http://www.w3.org/2000/svg"><path d="M368.08 129.911c60.672 0 112.177 21.28 154.976 64.054l-67.723 66.388c-.796-.988-1.642-1.979-2.565-2.905-23.248-25.169-51.513-37.897-84.688-37.897-32.677 0-60.771 12.745-84.189 37.92l-.005.006c-23.251 25.186-34.696 55.504-34.696 91.008 0 35.5 11.442 65.996 34.701 91.013v.001c23.418 25.175 51.512 37.92 84.189 37.92 33.185 0 61.457-12.736 84.709-37.92 2.119-2.26 4.007-4.514 5.741-6.655l72.517 61.866c-2.517 2.869-5.165 5.642-7.95 8.427-42.804 42.799-94.322 63.922-155.017 63.922-60.171 0-111.516-21.12-154.323-63.922-42.637-42.805-63.929-94.146-63.929-154.305 0-60.685 21.296-112.198 63.929-154.826 42.81-42.805 94.157-64.095 154.323-64.095zM688 270V0M45.68 688h34.685m53.069 0h97.639m344.602 0h-33.991m120.182 0h-17.343M29 2H0m201.767 0h-17.343m326.388 0H271.137M81.404 2H46.72M2 86.837V1m0 689V450m686 240V573m-.293-41.918v-44.045M397.219 688h71.278M687.705 2H561.277M544.28 2h-17.342m160.769 368.505v-80.114" stroke="#C4C4C4" stroke-width="4"/><mask id="a" maskUnits="userSpaceOnUse" x="313" y="286" width="229" height="117" fill="#000"><path fill="#fff" d="M313 286h229v117H313z"/><path d="M356.695 364.368h19.608v-14.165h9.283V335.1h-9.283v-44.163h-20.442L318 335.933l3.338 14.27h35.357v14.165zm-17.418-29.164l17.418-20.935v20.935h-17.418zm87.241 30.623c20.86 0 33.898-17.291 33.898-37.914 0-20.831-12.934-37.913-33.689-37.913-20.756 0-33.897 17.29-33.897 37.913 0 20.832 12.829 37.914 33.688 37.914zm.209-17.916c-8.135 0-13.559-8.332-13.559-19.998 0-11.874 5.319-19.998 13.35-19.998 8.031 0 13.559 8.437 13.559 19.998 0 11.77-5.215 19.998-13.35 19.998zm78.065 16.457H524.4v-14.165h9.282V335.1H524.4v-44.163h-20.443l-37.86 44.996 3.337 14.27h35.358v14.165zm-17.418-29.164l17.418-20.935v20.935h-17.418zm-46.562 63.015h14.811v-4.296h-9.804v-2.89h8.761v-3.984h-8.761v-2.761h9.673v-4.296h-14.68v18.227zm17.392 0h5.058v-5.52h2.217l3.676 5.52h5.841l-4.354-6.353c2.268-.964 3.754-2.812 3.754-5.599 0-1.848-.547-3.255-1.616-4.322-1.226-1.224-3.155-1.953-5.945-1.953h-8.631v18.227zm5.058-9.478v-4.374h3.312c1.695 0 2.738.729 2.738 2.161 0 1.38-.991 2.213-2.712 2.213h-3.338zm13.683 9.478h5.059v-5.52h2.216l3.677 5.52h5.84l-4.354-6.353c2.268-.964 3.755-2.812 3.755-5.599 0-1.848-.548-3.255-1.617-4.322-1.226-1.224-3.155-1.953-5.945-1.953h-8.631v18.227zm5.059-9.478v-4.374h3.311c1.695 0 2.738.729 2.738 2.161 0 1.38-.991 2.213-2.712 2.213h-3.337zm22.861 9.843c5.632 0 9.856-4.244 9.856-9.478 0-5.286-4.172-9.479-9.804-9.479-5.632 0-9.856 4.245-9.856 9.479 0 5.286 4.172 9.478 9.804 9.478zm.052-4.557c-2.764 0-4.668-2.291-4.668-4.921 0-2.682 1.852-4.922 4.616-4.922 2.79 0 4.693 2.292 4.693 4.922 0 2.682-1.851 4.921-4.641 4.921zm12.439 4.192h5.058v-5.52h2.217l3.676 5.52h5.841l-4.354-6.353c2.268-.964 3.754-2.812 3.754-5.599 0-1.848-.547-3.255-1.616-4.322-1.226-1.224-3.155-1.953-5.945-1.953h-8.631v18.227zm5.058-9.478v-4.374h3.312c1.695 0 2.738.729 2.738 2.161 0 1.38-.991 2.213-2.712 2.213h-3.338z"/></mask><path d="M356.695 364.368h19.608v-14.165h9.283V335.1h-9.283v-44.163h-20.442L318 335.933l3.338 14.27h35.357v14.165zm-17.418-29.164l17.418-20.935v20.935h-17.418zm87.241 30.623c20.86 0 33.898-17.291 33.898-37.914 0-20.831-12.934-37.913-33.689-37.913-20.756 0-33.897 17.29-33.897 37.913 0 20.832 12.829 37.914 33.688 37.914zm.209-17.916c-8.135 0-13.559-8.332-13.559-19.998 0-11.874 5.319-19.998 13.35-19.998 8.031 0 13.559 8.437 13.559 19.998 0 11.77-5.215 19.998-13.35 19.998zm78.065 16.457H524.4v-14.165h9.282V335.1H524.4v-44.163h-20.443l-37.86 44.996 3.337 14.27h35.358v14.165zm-17.418-29.164l17.418-20.935v20.935h-17.418zm-46.562 63.015h14.811v-4.296h-9.804v-2.89h8.761v-3.984h-8.761v-2.761h9.673v-4.296h-14.68v18.227zm17.392 0h5.058v-5.52h2.217l3.676 5.52h5.841l-4.354-6.353c2.268-.964 3.754-2.812 3.754-5.599 0-1.848-.547-3.255-1.616-4.322-1.226-1.224-3.155-1.953-5.945-1.953h-8.631v18.227zm5.058-9.478v-4.374h3.312c1.695 0 2.738.729 2.738 2.161 0 1.38-.991 2.213-2.712 2.213h-3.338zm13.683 9.478h5.059v-5.52h2.216l3.677 5.52h5.84l-4.354-6.353c2.268-.964 3.755-2.812 3.755-5.599 0-1.848-.548-3.255-1.617-4.322-1.226-1.224-3.155-1.953-5.945-1.953h-8.631v18.227zm5.059-9.478v-4.374h3.311c1.695 0 2.738.729 2.738 2.161 0 1.38-.991 2.213-2.712 2.213h-3.337zm22.861 9.843c5.632 0 9.856-4.244 9.856-9.478 0-5.286-4.172-9.479-9.804-9.479-5.632 0-9.856 4.245-9.856 9.479 0 5.286 4.172 9.478 9.804 9.478zm.052-4.557c-2.764 0-4.668-2.291-4.668-4.921 0-2.682 1.852-4.922 4.616-4.922 2.79 0 4.693 2.292 4.693 4.922 0 2.682-1.851 4.921-4.641 4.921zm12.439 4.192h5.058v-5.52h2.217l3.676 5.52h5.841l-4.354-6.353c2.268-.964 3.754-2.812 3.754-5.599 0-1.848-.547-3.255-1.616-4.322-1.226-1.224-3.155-1.953-5.945-1.953h-8.631v18.227zm5.058-9.478v-4.374h3.312c1.695 0 2.738.729 2.738 2.161 0 1.38-.991 2.213-2.712 2.213h-3.338z" stroke="#C4C4C4" stroke-width="8" mask="url(#a)"/><path d="M330.021 416.719c-.193 1.628-.805 2.886-1.834 3.774-1.022.881-2.384 1.321-4.085 1.321-1.845 0-3.325-.652-4.44-1.956-1.108-1.303-1.662-3.048-1.662-5.232v-1.48c0-1.431.257-2.689.772-3.774.522-1.085 1.258-1.917 2.209-2.495.951-.585 2.052-.877 3.303-.877 1.658 0 2.988.458 3.989 1.374 1.001.909 1.583 2.171 1.748 3.785h-2.07c-.179-1.227-.568-2.115-1.169-2.664-.593-.55-1.426-.825-2.498-.825-1.316 0-2.349.479-3.099 1.438-.744.958-1.115 2.322-1.115 4.091v1.49c0 1.67.353 2.999 1.061 3.985.708.987 1.698 1.48 2.971 1.48 1.143 0 2.019-.253 2.627-.761.614-.514 1.022-1.406 1.222-2.674h2.07zm11.13-4.968h-3.892v9.852h-1.984v-9.852h-3.817v-1.586h9.693v1.586zm11.732 4.26c0 1.74-.404 3.143-1.212 4.207-.808 1.064-1.902 1.596-3.281 1.596-1.409 0-2.517-.44-3.325-1.321V426h-1.983v-15.835h1.812l.096 1.268c.808-.986 1.93-1.48 3.367-1.48 1.394 0 2.495.518 3.303 1.554.815 1.036 1.223 2.478 1.223 4.324v.18zm-1.984-.222c0-1.29-.279-2.308-.837-3.055-.557-.747-1.322-1.121-2.294-1.121-1.201 0-2.102.525-2.703 1.575v5.465c.594 1.043 1.502 1.565 2.724 1.565.951 0 1.705-.37 2.263-1.11.564-.747.847-1.854.847-3.319zm11.677 5.814c-.114-.226-.207-.628-.278-1.206-.923.945-2.024 1.417-3.303 1.417-1.144 0-2.084-.317-2.82-.951-.73-.642-1.094-1.452-1.094-2.432 0-1.191.457-2.114 1.372-2.769.923-.663 2.217-.994 3.882-.994h1.93v-.898c0-.684-.207-1.227-.622-1.628-.414-.409-1.025-.613-1.833-.613-.708 0-1.301.176-1.78.528-.479.352-.719.779-.719 1.279h-1.994c0-.571.203-1.12.611-1.649.415-.535.972-.958 1.673-1.268a5.737 5.737 0 012.327-.466c1.337 0 2.384.332 3.142.994.757.656 1.151 1.561 1.179 2.717v5.264c0 1.05.136 1.885.408 2.505v.17h-2.081zm-3.292-1.491a3.53 3.53 0 001.77-.476c.557-.317.961-.729 1.211-1.236v-2.347h-1.554c-2.431 0-3.646.701-3.646 2.103 0 .614.207 1.093.622 1.438.414.345.947.518 1.597.518zm17.554 1.491h-1.984v-4.884h-5.329v4.884h-1.995v-11.438h1.995v4.958h5.329v-4.958h1.984v11.438zm10.702-11.438h1.984v11.438h-1.984v-8.341l-5.351 8.341h-1.984v-11.438h1.984v8.351l5.351-8.351zm5.34 0h1.995v9.841h5.34v-9.841h1.984v9.841h1.383l-.193 4.99h-1.78v-3.393h-8.729v-11.438zm20.01 11.438c-.115-.226-.208-.628-.279-1.206-.922.945-2.023 1.417-3.303 1.417-1.144 0-2.084-.317-2.82-.951-.729-.642-1.094-1.452-1.094-2.432 0-1.191.458-2.114 1.373-2.769.922-.663 2.216-.994 3.881-.994h1.931v-.898c0-.684-.208-1.227-.622-1.628-.415-.409-1.026-.613-1.834-.613-.708 0-1.301.176-1.78.528-.479.352-.718.779-.718 1.279h-1.995c0-.571.204-1.12.611-1.649.415-.535.972-.958 1.673-1.268a5.737 5.737 0 012.327-.466c1.337 0 2.384.332 3.142.994.758.656 1.151 1.561 1.179 2.717v5.264c0 1.05.136 1.885.408 2.505v.17h-2.08zm-3.292-1.491c.622 0 1.211-.159 1.769-.476.558-.317.961-.729 1.212-1.236v-2.347h-1.555c-2.431 0-3.646.701-3.646 2.103 0 .614.207 1.093.622 1.438.414.345.947.518 1.598.518zm23.001 1.491h-1.984v-4.884h-5.329v4.884h-1.995v-11.438h1.995v4.958h5.329v-4.958h1.984v11.438zm8.01.211c-1.573 0-2.852-.507-3.839-1.522-.986-1.022-1.48-2.386-1.48-4.091v-.36c0-1.134.218-2.145.655-3.033.443-.895 1.058-1.593 1.844-2.093a4.681 4.681 0 012.573-.762c1.509 0 2.681.49 3.518 1.47.836.979 1.254 2.382 1.254 4.207v.814h-7.86c.029 1.128.361 2.04.997 2.738.644.69 1.459 1.036 2.445 1.036.701 0 1.294-.141 1.78-.423a4.423 4.423 0 001.276-1.121l1.212.931c-.972 1.473-2.43 2.209-4.375 2.209zm-.247-10.254c-.8 0-1.472.289-2.015.867-.544.571-.88 1.374-1.008 2.41h5.812v-.148c-.058-.993-.329-1.762-.815-2.304-.487-.55-1.144-.825-1.974-.825zm22.004 10.043h-1.983v-4.884h-5.33v4.884h-1.994v-11.438h1.994v4.958h5.33v-4.958h1.983v11.438zm10.359 0c-.114-.226-.207-.628-.279-1.206-.922.945-2.023 1.417-3.302 1.417-1.144 0-2.084-.317-2.821-.951-.729-.642-1.093-1.452-1.093-2.432 0-1.191.457-2.114 1.372-2.769.922-.663 2.216-.994 3.882-.994h1.93v-.898c0-.684-.207-1.227-.622-1.628-.414-.409-1.026-.613-1.833-.613-.708 0-1.302.176-1.781.528-.478.352-.718.779-.718 1.279h-1.995c0-.571.204-1.12.612-1.649.414-.535.972-.958 1.673-1.268a5.732 5.732 0 012.326-.466c1.337 0 2.385.332 3.142.994.758.656 1.151 1.561 1.18 2.717v5.264c0 1.05.136 1.885.407 2.505v.17h-2.08zm-3.292-1.491c.622 0 1.212-.159 1.769-.476.558-.317.962-.729 1.212-1.236v-2.347h-1.555c-2.43 0-3.646.701-3.646 2.103 0 .614.208 1.093.622 1.438.415.345.948.518 1.598.518zm15.581-9.947h1.984v11.438h-1.984v-8.341l-5.351 8.341h-1.984v-11.438h1.984v8.351l5.351-8.351zm.536-4.165c0 .853-.297 1.54-.89 2.061-.586.515-1.358.772-2.316.772-.958 0-1.734-.261-2.327-.782-.593-.522-.89-1.205-.89-2.051h1.619c0 .493.136.881.408 1.163.271.275.668.412 1.19.412.5 0 .89-.137 1.169-.412.286-.275.429-.663.429-1.163h1.608zm4.536 14.006l.686-.835c.772-.986 1.212-2.466 1.319-4.44l.183-4.566h7.474v9.841h1.49v4.958h-1.984v-3.361h-8.096v3.361h-1.983l.01-4.958h.901zm2.348 0h5.33v-8.033h-3.571l-.118 2.727c-.121 2.276-.668 4.045-1.641 5.306zm15.817 1.808c-1.573 0-2.852-.507-3.839-1.522-.986-1.022-1.48-2.386-1.48-4.091v-.36c0-1.134.218-2.145.655-3.033.443-.895 1.058-1.593 1.844-2.093a4.681 4.681 0 012.573-.762c1.509 0 2.681.49 3.518 1.47.836.979 1.254 2.382 1.254 4.207v.814h-7.86c.029 1.128.361 2.04.997 2.738.644.69 1.459 1.036 2.445 1.036.701 0 1.294-.141 1.78-.423a4.423 4.423 0 001.276-1.121l1.212.931c-.972 1.473-2.43 2.209-4.375 2.209zm-.247-10.254c-.8 0-1.472.289-2.015.867-.544.571-.88 1.374-1.008 2.41h5.811v-.148c-.057-.993-.328-1.762-.814-2.304-.487-.55-1.144-.825-1.974-.825zm16.557 10.043h-1.984v-4.884h-5.329v4.884h-1.995v-11.438h1.995v4.958h5.329v-4.958h1.984v11.438zm10.359 0c-.115-.226-.208-.628-.279-1.206-.922.945-2.023 1.417-3.303 1.417-1.144 0-2.084-.317-2.82-.951-.729-.642-1.094-1.452-1.094-2.432 0-1.191.458-2.114 1.373-2.769.922-.663 2.216-.994 3.882-.994h1.93v-.898c0-.684-.208-1.227-.622-1.628-.415-.409-1.026-.613-1.834-.613-.708 0-1.301.176-1.78.528-.479.352-.718.779-.718 1.279h-1.995c0-.571.204-1.12.611-1.649.415-.535.973-.958 1.673-1.268a5.737 5.737 0 012.327-.466c1.337 0 2.384.332 3.142.994.758.656 1.151 1.561 1.18 2.717v5.264c0 1.05.135 1.885.407 2.505v.17h-2.08zm-3.292-1.491c.622 0 1.211-.159 1.769-.476.558-.317.962-.729 1.212-1.236v-2.347h-1.555c-2.431 0-3.646.701-3.646 2.103 0 .614.207 1.093.622 1.438.415.345.947.518 1.598.518z" fill="#C4C4C4"/></svg>