<svg width="222" height="55" fill="none" xmlns="http://www.w3.org/2000/svg"><path d="M56.147 43.672c.318-.367.587-.66.88-.856.268-.22.537-.392.806-.49.269-.122.513-.195.757-.22.245-.024.465-.049.684-.049.587 0 1.076.123 1.515.343.44.22.831.538 1.124.954.293.416.513.93.684 1.517.147.587.22 1.223.22 1.933 0 .758-.073 1.419-.269 2.03a4.542 4.542 0 01-.757 1.542c-.342.44-.708.758-1.173 1.003a3.21 3.21 0 01-1.441.343c-.22 0-.44 0-.684-.025a3.895 3.895 0 01-.733-.147 3.186 3.186 0 01-.782-.367 4.22 4.22 0 01-.83-.611v4.281h-.93V42.327h.93v1.345zm0 5.75c.855.905 1.833 1.345 2.932 1.345.44 0 .806-.073 1.148-.244.343-.172.636-.416.88-.759.244-.318.44-.734.586-1.223a7.397 7.397 0 00.196-1.737c0-1.248-.245-2.178-.709-2.814-.488-.636-1.148-.954-2.028-.954-1.123 0-2.125.587-3.005 1.81v4.576zm13.364-6.362c-.098-.024-.195-.024-.293-.024h-.342a2.13 2.13 0 00-.782.146c-.244.123-.489.27-.709.44-.244.172-.44.368-.635.613-.195.22-.366.44-.513.685v6.556h-.953v-9.15h.953v1.248a4.59 4.59 0 01.806-.758c.245-.196.513-.343.758-.465a4.64 4.64 0 01.708-.22c.22-.025.44-.05.636-.05h.17c.05 0 .123.025.196.025v.954zm2.833 8.417h-.952v-9.15h.952v9.15zm0-11.475h-.952V38.51h.952v1.492zm3.959 3.67c.318-.367.611-.636.904-.856.294-.22.587-.367.88-.49a3.32 3.32 0 01.782-.196c.244-.049.489-.049.708-.049 1.882 0 2.835 1.101 2.835 3.328v6.068h-.953v-5.97c0-.44-.025-.808-.122-1.126a1.578 1.578 0 00-.367-.758c-.147-.196-.366-.343-.66-.44-.268-.098-.586-.147-.977-.147-.537 0-1.05.146-1.54.465-.488.293-1 .734-1.49 1.296v6.68h-.928v-9.15h.928v1.345zm12.119 7.878c-.122.025-.269.025-.391.025-.147.024-.269.024-.415.024-.391 0-.733-.049-.978-.171a1.279 1.279 0 01-.562-.514 2.085 2.085 0 01-.244-.856 8.507 8.507 0 01-.073-1.2v-5.602H84.61v-.93h1.149v-2.422h.953v2.422h1.49v.93h-1.49v5.676c0 .392.024.685.073.906.049.22.147.416.244.513.122.147.245.22.416.245.146.049.342.049.537.049h.44v.905zm36.111-.612a6.94 6.94 0 01-.244 1.884c-.171.514-.391.93-.709 1.248-.317.343-.708.563-1.173.71-.464.146-1.026.22-1.637.22-.537 0-1.001-.05-1.417-.172a3.096 3.096 0 01-1.075-.489 2.185 2.185 0 01-.708-.783 3.016 3.016 0 01-.269-1.076h.928c.049.538.269.954.685 1.199.415.269 1.001.39 1.808.39.488 0 .904-.048 1.246-.17a2.03 2.03 0 00.879-.563c.245-.27.416-.612.538-1.028a5.89 5.89 0 00.195-1.59v-.587a7.44 7.44 0 01-.879.88c-.269.196-.513.368-.782.465a2.82 2.82 0 01-.709.196c-.244.025-.464.05-.684.05a3.399 3.399 0 01-1.539-.343 3.254 3.254 0 01-1.1-.979 4.22 4.22 0 01-.684-1.492 7.955 7.955 0 01-.22-1.933c0-.759.074-1.444.269-2.055.196-.588.44-1.101.758-1.542a3.612 3.612 0 011.172-.954c.44-.22.929-.343 1.442-.343.22 0 .44.025.684.05.22.024.464.097.733.17.244.074.489.197.757.343a5 5 0 01.782.538v-.856h.953v8.612zm-.953-6.581a4.574 4.574 0 00-1.344-1.003c-.439-.22-.952-.318-1.514-.318-.44 0-.807.073-1.149.22a2.523 2.523 0 00-.879.734c-.245.342-.44.758-.562 1.248-.147.489-.22 1.076-.22 1.737 0 1.247.244 2.177.733 2.838.464.636 1.148.954 2.003.954.562 0 1.1-.147 1.564-.465.464-.318.928-.783 1.368-1.394v-4.551zm10.017 5.945a7.392 7.392 0 01-.953.71 10.17 10.17 0 01-.904.44 3.799 3.799 0 01-.88.196 5.331 5.331 0 01-.879.073 3.28 3.28 0 01-1.124-.195 2.493 2.493 0 01-.904-.514 2.215 2.215 0 01-.611-.808 2.563 2.563 0 01-.22-1.076c0-1.028.464-1.86 1.344-2.422.904-.588 2.248-.881 4.031-.881h1.1a7.9 7.9 0 00-.074-1.126 2.009 2.009 0 00-.342-.88c-.171-.245-.415-.44-.757-.588-.342-.122-.806-.195-1.393-.195-.855 0-1.49.122-1.93.391-.415.27-.684.685-.757 1.224h-.953c.098-.881.44-1.517 1.026-1.933.586-.416 1.442-.637 2.59-.637.66 0 1.197.074 1.637.245.44.147.806.367 1.099.66.269.294.464.661.611 1.077.122.44.171.905.171 1.444v5.97h-.928v-1.175zm0-3.547h-1.442c-1.368 0-2.394.195-3.078.611-.66.392-1.002.954-1.002 1.688 0 .539.22.955.635 1.273.44.293 1.002.44 1.759.44.318 0 .636-.049.929-.147.317-.098.611-.22.855-.367.269-.171.537-.342.757-.538.22-.196.416-.392.587-.563v-2.397zm5.082 4.722h-.952V38.51h.952v12.967zm4.106 0h-.953V38.51h.953v12.967zm6.743.244a4.865 4.865 0 01-1.735-.318 3.55 3.55 0 01-1.344-.954 4.845 4.845 0 01-.879-1.517c-.196-.612-.294-1.297-.294-2.055 0-.734.098-1.395.294-2.006.195-.588.464-1.101.83-1.517.367-.416.807-.71 1.295-.954.489-.22 1.051-.319 1.637-.319.635 0 1.197.098 1.71.319.489.22.929.538 1.271.954.366.416.635.93.831 1.517.171.587.268 1.272.268 2.006v.22h-7.207c.049.612.171 1.175.342 1.615.195.465.415.856.708 1.15.294.318.636.538 1.002.685.391.147.806.22 1.246.22.318 0 .635-.024.953-.098a3.29 3.29 0 00.855-.342c.244-.147.464-.343.635-.563.171-.22.269-.465.318-.759h.928a3.23 3.23 0 01-.439 1.15c-.245.343-.513.636-.831.857a3.299 3.299 0 01-1.099.538 5.348 5.348 0 01-1.295.171zm2.931-5.578c-.171-1.028-.513-1.81-1.075-2.349-.561-.514-1.246-.758-2.052-.758a3.39 3.39 0 00-1.124.171 2.407 2.407 0 00-.904.587c-.293.245-.513.587-.708.979-.171.391-.293.856-.391 1.37h6.254zm7.624-3.083c-.073-.024-.171-.024-.268-.024h-.343c-.268 0-.537.049-.781.146a4.38 4.38 0 00-.709.44 3 3 0 00-.635.613c-.196.22-.367.44-.513.685v6.556h-.953v-9.15h.953v1.248c.268-.318.537-.563.782-.758.268-.196.537-.343.781-.465.245-.098.489-.172.709-.22.22-.025.44-.05.611-.05h.195c.049 0 .098.025.171.025v.954zm8.697-.733l-3.322 9.321a13.96 13.96 0 01-.636 1.444c-.195.44-.44.783-.684 1.076-.244.27-.513.49-.806.636-.293.147-.611.196-.977.196h-.367c-.122 0-.244-.024-.366-.024v-1.028a.604.604 0 00.195.024h.244c.538 0 1.002-.195 1.393-.562.367-.392.709-1.003 1.002-1.86l-3.47-9.223h1.027l3.005 7.976 2.736-7.976h1.026zm-60.739 8.245l-.562.562-1.612-1.59a5.303 5.303 0 01-.855.93 2.989 2.989 0 01-.88.611c-.293.147-.611.27-.928.318-.318.074-.66.098-.978.098-.488 0-.928-.073-1.344-.244-.415-.172-.781-.392-1.075-.685a2.918 2.918 0 01-.733-1.053c-.195-.391-.268-.807-.268-1.272 0-1.345.757-2.47 2.321-3.4-.538-.563-.929-1.053-1.173-1.493-.269-.416-.39-.783-.39-1.101 0-.367.048-.71.195-1.003a2.024 2.024 0 011.294-1.174c.294-.123.636-.172.978-.172.366 0 .684.074 1.002.196.293.122.561.27.806.49.22.195.391.464.537.733.122.294.196.612.196.93 0 .245-.074.49-.171.734-.098.22-.269.465-.464.71-.196.22-.44.44-.709.66a6.68 6.68 0 01-.928.563l3.347 3.327c.098-.171.171-.367.244-.587.073-.22.147-.465.196-.71.073-.269.122-.538.146-.807.049-.269.074-.563.074-.832h.781c-.024 1.322-.293 2.471-.83 3.426l1.783 1.834zm-6.45-5.285a4.559 4.559 0 00-.757.611c-.245.22-.465.465-.636.734a3.447 3.447 0 00-.415.783c-.098.27-.171.539-.171.783 0 .367.073.71.22 1.003.122.319.317.588.562.808.244.22.537.391.879.514a3.29 3.29 0 001.124.195c1.051 0 2.004-.611 2.81-1.81l-3.616-3.621zm2.101-3.034c0-.514-.146-.905-.464-1.174-.318-.27-.733-.416-1.222-.416a1.59 1.59 0 00-.708.147 1.24 1.24 0 00-.513.366c-.122.147-.22.319-.293.49a2.452 2.452 0 00-.098.587c0 .171.049.367.122.538.098.196.22.367.342.563.147.196.293.367.464.538.171.196.342.367.489.538.269-.17.513-.318.757-.464.22-.172.416-.318.587-.49.171-.17.293-.342.391-.538.097-.196.146-.44.146-.685z" fill="#1F1B20"/><path fill-rule="evenodd" clip-rule="evenodd" d="M82.533 29.332h-57.66v-2h57.66v2zm136.652-2h2.589v2h-2.589v-2zm-18.618 0h15.93v2h-15.93v-2zM0 27.332h22.43v2H0v-2zm169.904 0h2.444v2h-2.444v-2zm-16.76 0h8.087v2h-8.087v-2zm-14.147 2h-47.96v-2h47.96v2zm4.08-2h2.443v2h-2.443v-2zm-57.513.5h2.443v1h-2.444v-1z" fill="#EF0"/><path d="M24.164 12.6l3.152 2.691a6.337 6.337 0 01-.391.44c-1.784 1.787-3.983 2.692-6.524 2.692-2.516 0-4.69-.905-6.499-2.691-1.783-1.81-2.687-3.988-2.687-6.508 0-2.57.904-4.747 2.687-6.533C15.711.881 17.885 0 20.402 0c2.54 0 4.74.88 6.523 2.691.024.025.024.025.073.05l-2.956 2.91a1.226 1.226 0 00-.171-.195c-.953-1.028-2.101-1.541-3.47-1.541-1.343 0-2.492.513-3.445 1.54-.952 1.029-1.417 2.276-1.417 3.744 0 1.468.465 2.716 1.417 3.744.953 1.052 2.102 1.565 3.445 1.565 1.369 0 2.517-.513 3.47-1.565.122-.123.22-.22.293-.343zM42.903 0c2.541 0 4.716.88 6.5 2.691 1.808 1.786 2.687 3.964 2.687 6.533 0 2.52-.88 4.697-2.688 6.508-1.783 1.786-3.958 2.691-6.499 2.691-2.54 0-4.715-.905-6.499-2.691-1.808-1.81-2.687-3.988-2.687-6.508 0-2.57.88-4.747 2.687-6.533C38.188.881 40.362 0 42.904 0zm0 3.915c-1.343 0-2.492.513-3.469 1.54-.953 1.029-1.417 2.276-1.417 3.744 0 1.468.464 2.716 1.417 3.744.977 1.052 2.126 1.565 3.47 1.565 1.343 0 2.492-.513 3.444-1.565.953-1.028 1.442-2.276 1.442-3.744 0-1.468-.489-2.715-1.442-3.743-.952-1.028-2.1-1.541-3.445-1.541zM78.966.759v17.664h-4.178V8.196l-5.522 7.756-5.522-7.756v10.227h-4.178V.76h3.421l6.28 8.587L75.57.76h3.396zm27.779 0v17.664h-4.178V8.196l-5.522 7.756-5.497-7.756v10.227h-4.202V.76h3.445l6.254 8.587L103.35.76h3.396zm18.423 0h4.3v10.594c0 2.055-.733 3.792-2.174 5.235-1.442 1.468-3.201 2.178-5.229 2.178s-3.787-.71-5.228-2.178c-1.442-1.443-2.15-3.18-2.15-5.235V.759h4.275v10.349c0 2.324 1.026 3.523 3.103 3.621 2.077-.098 3.103-1.297 3.103-3.621V.758zm15.465 0l8.234 10.349V.808h4.203v17.59h-3.323l-8.258-10.373V18.4h-4.178V.759h3.322zm20.401.049h4.227v17.59h-4.227V.809zm26.461-.025v3.743h-5.033V18.4h-4.251V4.526h-5.033V.783h14.317z" fill="#1F1B20"/><path d="M210.829.808l-6.719 10.79v6.8h-4.203v-6.8L193.213.807h4.569l4.227 7.168 4.226-7.168h4.594z" fill="#2B2A29"/><path fill-rule="evenodd" clip-rule="evenodd" d="M175.401 27.332h4.887v2h-4.887v-2zm15.393 0h4.862v2h-4.862v-2z" fill="#EF0"/></svg>