<svg width="222" height="56" fill="none" xmlns="http://www.w3.org/2000/svg"><path d="M56.147 44.273c.318-.367.587-.661.88-.857.268-.22.537-.391.806-.49.269-.122.513-.195.757-.22.245-.024.465-.048.684-.048.587 0 1.076.122 1.515.342.44.22.831.538 1.124.954.293.416.513.93.684 1.517.147.588.22 1.224.22 1.933 0 .759-.073 1.42-.269 2.03a4.542 4.542 0 01-.757 1.542 3.51 3.51 0 01-1.173 1.003 3.21 3.21 0 01-1.441.343c-.22 0-.44 0-.684-.025a3.895 3.895 0 01-.733-.146 3.182 3.182 0 01-.782-.367 4.219 4.219 0 01-.83-.612v4.282h-.93V42.926h.93v1.346zm0 5.749c.855.905 1.833 1.346 2.932 1.346.44 0 .806-.074 1.148-.245a2.35 2.35 0 00.88-.758c.244-.319.44-.734.586-1.224a7.397 7.397 0 00.196-1.737c0-1.248-.245-2.177-.709-2.814-.488-.636-1.148-.954-2.028-.954-1.123 0-2.125.588-3.005 1.81v4.576zm13.364-6.362c-.098-.024-.195-.024-.293-.024h-.342a2.11 2.11 0 00-.782.147 4.285 4.285 0 00-.709.44c-.244.171-.44.367-.635.612-.195.22-.366.44-.513.685v6.557h-.953v-9.15h.953v1.247a4.59 4.59 0 01.806-.758c.245-.196.513-.343.758-.465a4.64 4.64 0 01.708-.22 6 6 0 01.636-.05h.17c.05 0 .123.025.196.025v.954zm2.833 8.417h-.952v-9.15h.952v9.15zm0-11.475h-.952V39.11h.952v1.492zm3.959 3.67c.318-.367.611-.636.904-.856.294-.22.587-.367.88-.49a3.32 3.32 0 01.782-.195c.244-.05.489-.05.708-.05 1.882 0 2.835 1.102 2.835 3.328v6.068h-.953v-5.97c0-.44-.025-.807-.122-1.126a1.578 1.578 0 00-.367-.758c-.147-.196-.366-.343-.66-.44-.268-.098-.586-.147-.977-.147a2.77 2.77 0 00-1.54.465c-.488.293-1 .734-1.49 1.296v6.68h-.928v-9.15h.928v1.345zm12.119 7.878c-.122.025-.269.025-.391.025-.147.024-.269.024-.415.024-.391 0-.733-.049-.978-.171a1.278 1.278 0 01-.562-.514 2.085 2.085 0 01-.244-.856 8.507 8.507 0 01-.073-1.199v-5.603H84.61v-.93h1.149v-2.422h.953v2.422h1.49v.93h-1.49v5.676c0 .392.024.686.073.906.049.22.147.416.244.513.122.147.245.22.416.245.146.049.342.049.537.049h.44v.905zm36.111-.612a6.94 6.94 0 01-.244 1.884c-.171.514-.391.93-.709 1.248-.317.343-.708.563-1.173.71-.464.146-1.026.22-1.637.22-.537 0-1.001-.05-1.417-.172a3.096 3.096 0 01-1.075-.489 2.185 2.185 0 01-.708-.783 3.016 3.016 0 01-.269-1.076h.928c.049.538.269.954.685 1.199.415.269 1.001.391 1.808.391.488 0 .904-.049 1.246-.171a2.03 2.03 0 00.879-.563c.245-.27.416-.612.538-1.028a5.89 5.89 0 00.195-1.59v-.587a7.44 7.44 0 01-.879.88c-.269.197-.513.368-.782.466a2.82 2.82 0 01-.709.195c-.244.025-.464.05-.684.05a3.399 3.399 0 01-1.539-.343 3.254 3.254 0 01-1.1-.979 4.22 4.22 0 01-.684-1.492 7.955 7.955 0 01-.22-1.933c0-.759.074-1.444.269-2.055.196-.588.44-1.101.758-1.542a3.612 3.612 0 011.172-.954c.44-.22.929-.342 1.442-.342.22 0 .44.024.684.049.22.024.464.097.733.17.244.074.489.197.757.343.269.147.513.318.782.539v-.857h.953v8.612zm-.953-6.581a4.574 4.574 0 00-1.344-1.003c-.439-.22-.952-.318-1.514-.318-.44 0-.807.073-1.149.22a2.523 2.523 0 00-.879.734c-.245.342-.44.758-.562 1.248-.147.49-.22 1.076-.22 1.737 0 1.248.244 2.177.733 2.838.464.636 1.148.954 2.003.954.562 0 1.1-.147 1.564-.465.464-.318.928-.783 1.368-1.394v-4.551zm10.017 5.945a7.392 7.392 0 01-.953.71 10.17 10.17 0 01-.904.44 3.799 3.799 0 01-.88.196 5.331 5.331 0 01-.879.073 3.28 3.28 0 01-1.124-.195 2.495 2.495 0 01-.904-.514 2.215 2.215 0 01-.611-.808 2.563 2.563 0 01-.22-1.076c0-1.028.464-1.86 1.344-2.422.904-.587 2.248-.881 4.031-.881h1.1c0-.416-.025-.783-.074-1.125a2.009 2.009 0 00-.342-.881c-.171-.245-.415-.44-.757-.587-.342-.123-.806-.196-1.393-.196-.855 0-1.49.122-1.93.391-.415.27-.684.685-.757 1.224h-.953c.098-.881.44-1.517 1.026-1.933.586-.416 1.442-.636 2.59-.636.66 0 1.197.073 1.637.244.44.147.806.367 1.099.66.269.294.464.662.611 1.077.122.44.171.906.171 1.444v5.97h-.928v-1.175zm0-3.547h-1.442c-1.368 0-2.394.195-3.078.611-.66.392-1.002.954-1.002 1.688 0 .539.22.955.635 1.273.44.293 1.002.44 1.759.44.318 0 .636-.049.929-.147a3.87 3.87 0 00.855-.367c.269-.17.537-.342.757-.538.22-.196.416-.391.587-.563v-2.397zm5.082 4.722h-.952V39.11h.952v12.967zm4.106 0h-.953V39.11h.953v12.967zm6.743.244a4.863 4.863 0 01-1.735-.318 3.55 3.55 0 01-1.344-.954 4.845 4.845 0 01-.879-1.517c-.196-.611-.294-1.296-.294-2.055 0-.734.098-1.395.294-2.006.195-.587.464-1.101.83-1.517.367-.416.807-.71 1.295-.954.489-.22 1.051-.318 1.637-.318.635 0 1.197.097 1.71.318.489.22.929.538 1.271.954.366.416.635.93.831 1.517.171.587.268 1.272.268 2.006v.22h-7.207c.049.612.171 1.175.342 1.615.195.465.415.856.708 1.15.294.318.636.538 1.002.685.391.147.806.22 1.246.22.318 0 .635-.024.953-.098a3.29 3.29 0 00.855-.342c.244-.147.464-.343.635-.563.171-.22.269-.465.318-.758h.928c-.073.44-.244.831-.439 1.15-.245.342-.513.636-.831.856a3.299 3.299 0 01-1.099.538 5.348 5.348 0 01-1.295.171zm2.931-5.578c-.171-1.028-.513-1.81-1.075-2.349-.561-.514-1.246-.758-2.052-.758a3.39 3.39 0 00-1.124.171 2.407 2.407 0 00-.904.587c-.293.245-.513.587-.708.979-.171.391-.293.856-.391 1.37h6.254zm7.624-3.083c-.073-.024-.171-.024-.268-.024h-.343c-.268 0-.537.049-.781.147a4.244 4.244 0 00-.709.44 3 3 0 00-.635.612c-.196.22-.367.44-.513.685v6.557h-.953v-9.15h.953v1.247c.268-.318.537-.563.782-.758.268-.196.537-.343.781-.465.245-.098.489-.172.709-.22.22-.025.44-.05.611-.05h.195c.049 0 .098.025.171.025v.954zm8.697-.733l-3.322 9.321a13.96 13.96 0 01-.636 1.444c-.195.44-.44.783-.684 1.076-.244.27-.513.49-.806.636-.293.147-.611.196-.977.196h-.367c-.122 0-.244-.024-.366-.024v-1.028a.604.604 0 00.195.025h.244c.538 0 1.002-.196 1.393-.563.367-.392.709-1.003 1.002-1.86l-3.47-9.223h1.027l3.005 7.976 2.736-7.976h1.026zm-60.739 8.245l-.562.562-1.612-1.59a5.306 5.306 0 01-.855.93 2.989 2.989 0 01-.88.611c-.293.147-.611.27-.928.319-.318.073-.66.097-.978.097-.488 0-.928-.073-1.344-.244-.415-.172-.781-.392-1.075-.685a2.918 2.918 0 01-.733-1.052c-.195-.392-.268-.808-.268-1.273 0-1.345.757-2.47 2.321-3.4-.538-.563-.929-1.053-1.173-1.493-.269-.416-.39-.783-.39-1.1 0-.368.048-.71.195-1.004a2.024 2.024 0 011.294-1.174c.294-.123.636-.172.978-.172.366 0 .684.074 1.002.196.293.122.561.27.806.49.22.195.391.464.537.733.122.294.196.612.196.93 0 .245-.074.49-.171.734-.098.22-.269.465-.464.71-.196.22-.44.44-.709.66a6.68 6.68 0 01-.928.563l3.347 3.327c.098-.17.171-.367.244-.587.073-.22.147-.465.196-.71.073-.268.122-.538.146-.807.049-.269.074-.563.074-.832h.781c-.024 1.322-.293 2.471-.83 3.426l1.783 1.835zm-6.45-5.285a4.559 4.559 0 00-.757.612c-.245.22-.465.465-.636.734a3.447 3.447 0 00-.415.783c-.098.269-.171.538-.171.782 0 .367.073.71.22 1.003.122.319.317.588.562.808.244.22.537.391.879.514a3.29 3.29 0 001.124.195c1.051 0 2.004-.611 2.81-1.81l-3.616-3.621zm2.101-3.034c0-.514-.146-.905-.464-1.174-.318-.27-.733-.416-1.222-.416a1.59 1.59 0 00-.708.147 1.24 1.24 0 00-.513.367c-.122.146-.22.318-.293.489a2.452 2.452 0 00-.098.587c0 .171.049.367.122.538.098.196.22.367.342.563.147.196.293.367.464.538.171.196.342.367.489.539.269-.172.513-.318.757-.465.22-.172.416-.318.587-.49.171-.17.293-.342.391-.538.097-.195.146-.44.146-.685z" fill="#fff"/><path d="M24.872 28.932h57.661m139.241 0h-2.589m-2.688 0h-15.93m-178.137 0H0m172.348 0h-2.444m-8.673 0h-8.087m-62.108 0h47.961m6.523 0h-2.443" stroke="#EF0" stroke-width="2"/><path d="M88.007 28.932h-2.444" stroke="#EF0"/><path d="M24.164 13.2l3.152 2.691a5.97 5.97 0 01-.391.44c-1.784 1.787-3.983 2.692-6.524 2.692-2.516 0-4.69-.905-6.499-2.691-1.783-1.81-2.687-3.988-2.687-6.508 0-2.57.904-4.747 2.687-6.533 1.809-1.81 3.983-2.69 6.5-2.69 2.54 0 4.74.88 6.523 2.69.024.025.024.025.073.05l-2.956 2.91a1.226 1.226 0 00-.171-.195c-.953-1.028-2.101-1.541-3.47-1.541-1.343 0-2.492.513-3.445 1.541-.952 1.028-1.417 2.275-1.417 3.743s.465 2.716 1.417 3.744c.953 1.052 2.102 1.566 3.445 1.566 1.369 0 2.517-.514 3.47-1.566.122-.123.22-.22.293-.343zM42.903.6c2.541 0 4.716.88 6.5 2.691 1.808 1.786 2.687 3.964 2.687 6.533 0 2.52-.88 4.697-2.688 6.508-1.783 1.786-3.958 2.691-6.499 2.691-2.54 0-4.715-.905-6.499-2.691-1.808-1.81-2.687-3.988-2.687-6.508 0-2.57.88-4.747 2.687-6.533 1.784-1.81 3.958-2.69 6.5-2.69zm0 3.915c-1.343 0-2.492.513-3.469 1.541-.953 1.028-1.417 2.275-1.417 3.743s.464 2.716 1.417 3.744c.977 1.052 2.126 1.566 3.47 1.566 1.343 0 2.492-.514 3.444-1.566.953-1.028 1.442-2.276 1.442-3.744 0-1.468-.489-2.715-1.442-3.743-.952-1.028-2.1-1.541-3.445-1.541zm36.063-3.156v17.664h-4.178V8.797l-5.522 7.755-5.522-7.755v10.226h-4.178V1.36h3.421l6.28 8.588L75.57 1.36h3.396zm27.779 0v17.664h-4.178V8.797l-5.522 7.755-5.497-7.755v10.226h-4.202V1.36h3.445l6.254 8.588 6.304-8.588h3.396zm18.423 0h4.3v10.594c0 2.055-.733 3.792-2.174 5.236-1.442 1.468-3.201 2.177-5.229 2.177s-3.787-.71-5.228-2.177c-1.442-1.444-2.15-3.181-2.15-5.236V1.359h4.275v10.35c0 2.323 1.026 3.522 3.103 3.62 2.077-.098 3.103-1.297 3.103-3.62V1.358zm15.465 0l8.234 10.35V1.407h4.203v17.591h-3.323l-8.258-10.374V19h-4.178V1.359h3.322zm20.401.049h4.227v17.59h-4.227V1.409zm26.461-.025v3.743h-5.033v13.872h-4.251V5.126h-5.033V1.383h14.317zm23.334.025l-6.719 10.79v6.8h-4.203v-6.8l-6.694-10.79h4.569l4.227 7.168 4.226-7.168h4.594z" fill="#fff"/><path d="M180.288 28.932h-4.887m20.255 0h-4.862" stroke="#EF0" stroke-width="2"/></svg>