<svg width="690" height="690" viewBox="0 0 690 690" fill="none" xmlns="http://www.w3.org/2000/svg">
<path d="M368.08 129.911C428.752 129.911 480.257 151.191 523.056 193.965L455.333 260.353C454.537 259.365 453.691 258.374 452.768 257.448C429.52 232.279 401.255 219.551 368.08 219.551C335.403 219.551 307.309 232.296 283.891 257.471L283.886 257.477C260.635 282.663 249.19 312.981 249.19 348.485C249.19 383.985 260.632 414.481 283.891 439.498L283.891 439.499C307.309 464.674 335.403 477.419 368.08 477.419C401.265 477.419 429.537 464.683 452.789 439.499C454.908 437.239 456.796 434.985 458.53 432.844L531.047 494.71C528.53 497.579 525.882 500.352 523.097 503.137C480.293 545.936 428.775 567.059 368.08 567.059C307.909 567.059 256.564 545.939 213.757 503.137C171.12 460.332 149.828 408.991 149.828 348.832C149.828 288.147 171.124 236.634 213.757 194.006C256.567 151.201 307.914 129.911 368.08 129.911Z" stroke="#C4C4C4" stroke-width="4"/>
<path d="M688 270L688 0" stroke="#C4C4C4" stroke-width="4"/>
<path d="M45.6797 688H80.365" stroke="#C4C4C4" stroke-width="4"/>
<path d="M133.434 688H231.073" stroke="#C4C4C4" stroke-width="4"/>
<path d="M575.675 688H541.684" stroke="#C4C4C4" stroke-width="4"/>
<path d="M661.866 688H644.523" stroke="#C4C4C4" stroke-width="4"/>
<path d="M29 2L0 2" stroke="#C4C4C4" stroke-width="4"/>
<path d="M201.767 2H184.424" stroke="#C4C4C4" stroke-width="4"/>
<path d="M510.812 2H271.137" stroke="#C4C4C4" stroke-width="4"/>
<path d="M81.4041 2H46.7188" stroke="#C4C4C4" stroke-width="4"/>
<path d="M2 86.8366V1" stroke="#C4C4C4" stroke-width="4"/>
<path d="M1.99999 690L2 450" stroke="#C4C4C4" stroke-width="4"/>
<path d="M688 690L688 573" stroke="#C4C4C4" stroke-width="4"/>
<path d="M687.707 531.082V487.037" stroke="#C4C4C4" stroke-width="4"/>
<path d="M397.219 688H468.497" stroke="#C4C4C4" stroke-width="4"/>
<path d="M687.705 2H561.277" stroke="#C4C4C4" stroke-width="4"/>
<path d="M544.28 2H526.938" stroke="#C4C4C4" stroke-width="4"/>
<path d="M687.707 370.505V290.391" stroke="#C4C4C4" stroke-width="4"/>
<mask id="path-19-outside-1" maskUnits="userSpaceOnUse" x="313" y="286" width="229" height="117" fill="black">
<rect fill="white" x="313" y="286" width="229" height="117"/>
<path d="M356.695 364.368H376.303V350.203H385.586V335.1H376.303V290.937H355.861L318 335.933L321.338 350.203H356.695V364.368ZM339.277 335.204L356.695 314.269V335.204H339.277Z"/>
<path d="M426.518 365.827C447.378 365.827 460.416 348.536 460.416 327.913C460.416 307.082 447.482 290 426.727 290C405.971 290 392.83 307.29 392.83 327.913C392.83 348.745 405.659 365.827 426.518 365.827ZM426.727 347.911C418.592 347.911 413.168 339.579 413.168 327.913C413.168 316.039 418.487 307.915 426.518 307.915C434.549 307.915 440.077 316.352 440.077 327.913C440.077 339.683 434.862 347.911 426.727 347.911Z"/>
<path d="M504.792 364.368H524.4V350.203H533.682V335.1H524.4V290.937H503.957L466.097 335.933L469.434 350.203H504.792V364.368ZM487.374 335.204L504.792 314.269V335.204H487.374Z"/>
<path d="M440.812 398.219H455.623V393.923H445.819V391.033H454.58V387.049H445.819V384.288H455.492V379.992H440.812V398.219Z"/>
<path d="M458.204 398.219H463.262V392.699H465.479L469.155 398.219H474.996L470.642 391.866C472.91 390.902 474.396 389.054 474.396 386.267C474.396 384.419 473.849 383.012 472.78 381.945C471.554 380.721 469.625 379.992 466.835 379.992H458.204V398.219ZM463.262 388.741V384.367H466.574C468.269 384.367 469.312 385.096 469.312 386.528C469.312 387.908 468.321 388.741 466.6 388.741H463.262Z"/>
<path d="M476.945 398.219H482.004V392.699H484.22L487.897 398.219H493.737L489.383 391.866C491.651 390.902 493.138 389.054 493.138 386.267C493.138 384.419 492.59 383.012 491.521 381.945C490.295 380.721 488.366 379.992 485.576 379.992H476.945V398.219ZM482.004 388.741V384.367H485.315C487.01 384.367 488.053 385.096 488.053 386.528C488.053 387.908 487.062 388.741 485.341 388.741H482.004Z"/>
<path d="M504.865 398.584C510.497 398.584 514.721 394.34 514.721 389.106C514.721 383.82 510.549 379.627 504.917 379.627C499.285 379.627 495.061 383.872 495.061 389.106C495.061 394.392 499.233 398.584 504.865 398.584ZM504.917 394.027C502.153 394.027 500.249 391.736 500.249 389.106C500.249 386.424 502.101 384.184 504.865 384.184C507.655 384.184 509.558 386.476 509.558 389.106C509.558 391.788 507.707 394.027 504.917 394.027Z"/>
<path d="M517.356 398.219H522.414V392.699H524.631L528.307 398.219H534.148L529.794 391.866C532.062 390.902 533.548 389.054 533.548 386.267C533.548 384.419 533.001 383.012 531.932 381.945C530.706 380.721 528.777 379.992 525.987 379.992H517.356V398.219ZM522.414 388.741V384.367H525.726C527.421 384.367 528.464 385.096 528.464 386.528C528.464 387.908 527.473 388.741 525.752 388.741H522.414Z"/>
</mask>
<path d="M356.695 364.368H376.303V350.203H385.586V335.1H376.303V290.937H355.861L318 335.933L321.338 350.203H356.695V364.368ZM339.277 335.204L356.695 314.269V335.204H339.277Z" stroke="#C4C4C4" stroke-width="8" mask="url(#path-19-outside-1)"/>
<path d="M426.518 365.827C447.378 365.827 460.416 348.536 460.416 327.913C460.416 307.082 447.482 290 426.727 290C405.971 290 392.83 307.29 392.83 327.913C392.83 348.745 405.659 365.827 426.518 365.827ZM426.727 347.911C418.592 347.911 413.168 339.579 413.168 327.913C413.168 316.039 418.487 307.915 426.518 307.915C434.549 307.915 440.077 316.352 440.077 327.913C440.077 339.683 434.862 347.911 426.727 347.911Z" stroke="#C4C4C4" stroke-width="8" mask="url(#path-19-outside-1)"/>
<path d="M504.792 364.368H524.4V350.203H533.682V335.1H524.4V290.937H503.957L466.097 335.933L469.434 350.203H504.792V364.368ZM487.374 335.204L504.792 314.269V335.204H487.374Z" stroke="#C4C4C4" stroke-width="8" mask="url(#path-19-outside-1)"/>
<path d="M440.812 398.219H455.623V393.923H445.819V391.033H454.58V387.049H445.819V384.288H455.492V379.992H440.812V398.219Z" stroke="#C4C4C4" stroke-width="8" mask="url(#path-19-outside-1)"/>
<path d="M458.204 398.219H463.262V392.699H465.479L469.155 398.219H474.996L470.642 391.866C472.91 390.902 474.396 389.054 474.396 386.267C474.396 384.419 473.849 383.012 472.78 381.945C471.554 380.721 469.625 379.992 466.835 379.992H458.204V398.219ZM463.262 388.741V384.367H466.574C468.269 384.367 469.312 385.096 469.312 386.528C469.312 387.908 468.321 388.741 466.6 388.741H463.262Z" stroke="#C4C4C4" stroke-width="8" mask="url(#path-19-outside-1)"/>
<path d="M476.945 398.219H482.004V392.699H484.22L487.897 398.219H493.737L489.383 391.866C491.651 390.902 493.138 389.054 493.138 386.267C493.138 384.419 492.59 383.012 491.521 381.945C490.295 380.721 488.366 379.992 485.576 379.992H476.945V398.219ZM482.004 388.741V384.367H485.315C487.01 384.367 488.053 385.096 488.053 386.528C488.053 387.908 487.062 388.741 485.341 388.741H482.004Z" stroke="#C4C4C4" stroke-width="8" mask="url(#path-19-outside-1)"/>
<path d="M504.865 398.584C510.497 398.584 514.721 394.34 514.721 389.106C514.721 383.82 510.549 379.627 504.917 379.627C499.285 379.627 495.061 383.872 495.061 389.106C495.061 394.392 499.233 398.584 504.865 398.584ZM504.917 394.027C502.153 394.027 500.249 391.736 500.249 389.106C500.249 386.424 502.101 384.184 504.865 384.184C507.655 384.184 509.558 386.476 509.558 389.106C509.558 391.788 507.707 394.027 504.917 394.027Z" stroke="#C4C4C4" stroke-width="8" mask="url(#path-19-outside-1)"/>
<path d="M517.356 398.219H522.414V392.699H524.631L528.307 398.219H534.148L529.794 391.866C532.062 390.902 533.548 389.054 533.548 386.267C533.548 384.419 533.001 383.012 531.932 381.945C530.706 380.721 528.777 379.992 525.987 379.992H517.356V398.219ZM522.414 388.741V384.367H525.726C527.421 384.367 528.464 385.096 528.464 386.528C528.464 387.908 527.473 388.741 525.752 388.741H522.414Z" stroke="#C4C4C4" stroke-width="8" mask="url(#path-19-outside-1)"/>
<path d="M330.021 416.719C329.828 418.347 329.216 419.605 328.187 420.493C327.165 421.374 325.803 421.814 324.102 421.814C322.257 421.814 320.777 421.162 319.662 419.858C318.554 418.555 318 416.81 318 414.626V413.146C318 411.715 318.257 410.457 318.772 409.372C319.294 408.287 320.03 407.455 320.981 406.877C321.932 406.292 323.033 406 324.284 406C325.942 406 327.272 406.458 328.273 407.374C329.274 408.283 329.856 409.545 330.021 411.159H327.951C327.772 409.932 327.383 409.044 326.782 408.495C326.189 407.945 325.356 407.67 324.284 407.67C322.968 407.67 321.935 408.149 321.185 409.108C320.441 410.066 320.07 411.43 320.07 413.199V414.689C320.07 416.359 320.423 417.688 321.131 418.674C321.839 419.661 322.829 420.154 324.102 420.154C325.245 420.154 326.121 419.901 326.729 419.393C327.343 418.879 327.751 417.987 327.951 416.719H330.021Z" fill="#C4C4C4"/>
<path d="M341.151 411.751H337.259V421.603H335.275V411.751H331.458V410.165H341.151V411.751Z" fill="#C4C4C4"/>
<path d="M352.883 416.011C352.883 417.751 352.479 419.154 351.671 420.218C350.863 421.282 349.769 421.814 348.39 421.814C346.981 421.814 345.873 421.374 345.065 420.493V426H343.082V410.165H344.894L344.99 411.433C345.798 410.447 346.92 409.953 348.357 409.953C349.751 409.953 350.852 410.471 351.66 411.507C352.475 412.543 352.883 413.985 352.883 415.831V416.011ZM350.899 415.789C350.899 414.499 350.62 413.481 350.062 412.734C349.505 411.987 348.74 411.613 347.768 411.613C346.567 411.613 345.666 412.138 345.065 413.188V418.653C345.659 419.696 346.567 420.218 347.789 420.218C348.74 420.218 349.494 419.848 350.052 419.108C350.616 418.361 350.899 417.254 350.899 415.789Z" fill="#C4C4C4"/>
<path d="M362.576 421.603C362.462 421.377 362.369 420.975 362.298 420.397C361.375 421.342 360.274 421.814 358.995 421.814C357.851 421.814 356.911 421.497 356.175 420.863C355.445 420.221 355.081 419.411 355.081 418.431C355.081 417.24 355.538 416.317 356.453 415.662C357.376 414.999 358.67 414.668 360.335 414.668H362.265V413.77C362.265 413.086 362.058 412.543 361.643 412.142C361.229 411.733 360.618 411.529 359.81 411.529C359.102 411.529 358.509 411.705 358.03 412.057C357.551 412.409 357.311 412.836 357.311 413.336H355.317C355.317 412.765 355.52 412.216 355.928 411.687C356.343 411.152 356.9 410.729 357.601 410.419C358.309 410.109 359.084 409.953 359.928 409.953C361.265 409.953 362.312 410.285 363.07 410.947C363.827 411.603 364.221 412.508 364.249 413.664V418.928C364.249 419.978 364.385 420.813 364.657 421.433V421.603H362.576ZM359.284 420.112C359.906 420.112 360.496 419.953 361.054 419.636C361.611 419.319 362.015 418.907 362.265 418.4V416.053H360.711C358.28 416.053 357.065 416.754 357.065 418.156C357.065 418.77 357.272 419.249 357.687 419.594C358.101 419.939 358.634 420.112 359.284 420.112Z" fill="#C4C4C4"/>
<path d="M376.838 421.603H374.854V416.719H369.525V421.603H367.53V410.165H369.525V415.123H374.854V410.165H376.838V421.603Z" fill="#C4C4C4"/>
<path d="M387.54 410.165H389.524V421.603H387.54V413.262L382.189 421.603H380.205V410.165H382.189V418.516L387.54 410.165Z" fill="#C4C4C4"/>
<path d="M392.88 410.165H394.875V420.006H400.215V410.165H402.199V420.006H403.582L403.389 424.996H401.609V421.603H392.88V410.165Z" fill="#C4C4C4"/>
<path d="M412.89 421.603C412.775 421.377 412.682 420.975 412.611 420.397C411.689 421.342 410.588 421.814 409.308 421.814C408.164 421.814 407.224 421.497 406.488 420.863C405.759 420.221 405.394 419.411 405.394 418.431C405.394 417.24 405.852 416.317 406.767 415.662C407.689 414.999 408.983 414.668 410.648 414.668H412.579V413.77C412.579 413.086 412.371 412.543 411.957 412.142C411.542 411.733 410.931 411.529 410.123 411.529C409.415 411.529 408.822 411.705 408.343 412.057C407.864 412.409 407.625 412.836 407.625 413.336H405.63C405.63 412.765 405.834 412.216 406.241 411.687C406.656 411.152 407.213 410.729 407.914 410.419C408.622 410.109 409.397 409.953 410.241 409.953C411.578 409.953 412.625 410.285 413.383 410.947C414.141 411.603 414.534 412.508 414.562 413.664V418.928C414.562 419.978 414.698 420.813 414.97 421.433V421.603H412.89ZM409.598 420.112C410.22 420.112 410.809 419.953 411.367 419.636C411.925 419.319 412.328 418.907 412.579 418.4V416.053H411.024C408.593 416.053 407.378 416.754 407.378 418.156C407.378 418.77 407.585 419.249 408 419.594C408.414 419.939 408.947 420.112 409.598 420.112Z" fill="#C4C4C4"/>
<path d="M432.599 421.603H430.615V416.719H425.286V421.603H423.291V410.165H425.286V415.123H430.615V410.165H432.599V421.603Z" fill="#C4C4C4"/>
<path d="M440.609 421.814C439.036 421.814 437.757 421.307 436.77 420.292C435.784 419.27 435.29 417.906 435.29 416.201V415.841C435.29 414.707 435.508 413.696 435.945 412.808C436.388 411.913 437.003 411.215 437.789 410.715C438.582 410.207 439.44 409.953 440.362 409.953C441.871 409.953 443.043 410.443 443.88 411.423C444.716 412.402 445.134 413.805 445.134 415.63V416.444H437.274C437.303 417.572 437.635 418.484 438.271 419.182C438.915 419.872 439.73 420.218 440.716 420.218C441.417 420.218 442.01 420.077 442.496 419.795C442.983 419.513 443.408 419.14 443.772 418.674L444.984 419.605C444.012 421.078 442.554 421.814 440.609 421.814ZM440.362 411.56C439.562 411.56 438.89 411.849 438.347 412.427C437.803 412.998 437.467 413.801 437.339 414.837H443.151V414.689C443.093 413.696 442.822 412.927 442.336 412.385C441.849 411.835 441.192 411.56 440.362 411.56Z" fill="#C4C4C4"/>
<path d="M462.366 421.603H460.383V416.719H455.053V421.603H453.059V410.165H455.053V415.123H460.383V410.165H462.366V421.603Z" fill="#C4C4C4"/>
<path d="M472.725 421.603C472.611 421.377 472.518 420.975 472.446 420.397C471.524 421.342 470.423 421.814 469.144 421.814C468 421.814 467.06 421.497 466.323 420.863C465.594 420.221 465.23 419.411 465.23 418.431C465.23 417.24 465.687 416.317 466.602 415.662C467.524 414.999 468.818 414.668 470.484 414.668H472.414V413.77C472.414 413.086 472.207 412.543 471.792 412.142C471.378 411.733 470.766 411.529 469.959 411.529C469.251 411.529 468.657 411.705 468.178 412.057C467.7 412.409 467.46 412.836 467.46 413.336H465.465C465.465 412.765 465.669 412.216 466.077 411.687C466.491 411.152 467.049 410.729 467.75 410.419C468.457 410.109 469.233 409.953 470.076 409.953C471.413 409.953 472.461 410.285 473.218 410.947C473.976 411.603 474.369 412.508 474.398 413.664V418.928C474.398 419.978 474.534 420.813 474.805 421.433V421.603H472.725ZM469.433 420.112C470.055 420.112 470.645 419.953 471.202 419.636C471.76 419.319 472.164 418.907 472.414 418.4V416.053H470.859C468.429 416.053 467.213 416.754 467.213 418.156C467.213 418.77 467.421 419.249 467.835 419.594C468.25 419.939 468.783 420.112 469.433 420.112Z" fill="#C4C4C4"/>
<path d="M485.014 410.165H486.998V421.603H485.014V413.262L479.663 421.603H477.679V410.165H479.663V418.516L485.014 410.165ZM485.55 406C485.55 406.853 485.253 407.54 484.66 408.061C484.074 408.576 483.302 408.833 482.344 408.833C481.386 408.833 480.61 408.572 480.017 408.051C479.424 407.529 479.127 406.846 479.127 406H480.746C480.746 406.493 480.882 406.881 481.154 407.163C481.425 407.438 481.822 407.575 482.344 407.575C482.844 407.575 483.234 407.438 483.513 407.163C483.799 406.888 483.942 406.5 483.942 406H485.55Z" fill="#C4C4C4"/>
<path d="M490.086 420.006L490.772 419.171C491.544 418.185 491.984 416.705 492.091 414.731L492.274 410.165H499.748V420.006H501.238V424.964H499.254V421.603H491.158V424.964H489.175L489.185 420.006H490.086ZM492.434 420.006H497.764V411.973H494.193L494.075 414.7C493.954 416.976 493.407 418.745 492.434 420.006Z" fill="#C4C4C4"/>
<path d="M508.251 421.814C506.678 421.814 505.399 421.307 504.412 420.292C503.426 419.27 502.932 417.906 502.932 416.201V415.841C502.932 414.707 503.15 413.696 503.587 412.808C504.03 411.913 504.645 411.215 505.431 410.715C506.224 410.207 507.082 409.953 508.004 409.953C509.513 409.953 510.685 410.443 511.522 411.423C512.358 412.402 512.776 413.805 512.776 415.63V416.444H504.916C504.945 417.572 505.277 418.484 505.913 419.182C506.557 419.872 507.372 420.218 508.358 420.218C509.059 420.218 509.652 420.077 510.138 419.795C510.625 419.513 511.05 419.14 511.414 418.674L512.626 419.605C511.654 421.078 510.196 421.814 508.251 421.814ZM508.004 411.56C507.204 411.56 506.532 411.849 505.989 412.427C505.445 412.998 505.109 413.801 504.981 414.837H510.792V414.689C510.735 413.696 510.464 412.927 509.978 412.385C509.491 411.835 508.834 411.56 508.004 411.56Z" fill="#C4C4C4"/>
<path d="M524.561 421.603H522.577V416.719H517.248V421.603H515.253V410.165H517.248V415.123H522.577V410.165H524.561V421.603Z" fill="#C4C4C4"/>
<path d="M534.92 421.603C534.805 421.377 534.712 420.975 534.641 420.397C533.719 421.342 532.618 421.814 531.338 421.814C530.194 421.814 529.254 421.497 528.518 420.863C527.789 420.221 527.424 419.411 527.424 418.431C527.424 417.24 527.882 416.317 528.797 415.662C529.719 414.999 531.013 414.668 532.679 414.668H534.609V413.77C534.609 413.086 534.401 412.543 533.987 412.142C533.572 411.733 532.961 411.529 532.153 411.529C531.445 411.529 530.852 411.705 530.373 412.057C529.894 412.409 529.655 412.836 529.655 413.336H527.66C527.66 412.765 527.864 412.216 528.271 411.687C528.686 411.152 529.244 410.729 529.944 410.419C530.652 410.109 531.427 409.953 532.271 409.953C533.608 409.953 534.655 410.285 535.413 410.947C536.171 411.603 536.564 412.508 536.593 413.664V418.928C536.593 419.978 536.728 420.813 537 421.433V421.603H534.92ZM531.628 420.112C532.25 420.112 532.839 419.953 533.397 419.636C533.955 419.319 534.359 418.907 534.609 418.4V416.053H533.054C530.623 416.053 529.408 416.754 529.408 418.156C529.408 418.77 529.615 419.249 530.03 419.594C530.445 419.939 530.977 420.112 531.628 420.112Z" fill="#C4C4C4"/>
</svg>
