<svg width="222" height="56" viewBox="0 0 222 56" fill="none" xmlns="http://www.w3.org/2000/svg">
<path d="M56.1472 44.2725C56.4648 43.9055 56.7336 43.6119 57.0268 43.4162C57.2955 43.196 57.5643 43.0247 57.833 42.9268C58.1018 42.8045 58.3461 42.7311 58.5904 42.7066C58.8348 42.6822 59.0547 42.6577 59.2745 42.6577C59.8609 42.6577 60.3496 42.78 60.7894 43.0002C61.2291 43.2204 61.6201 43.5385 61.9133 43.9544C62.2064 44.3703 62.4263 44.8841 62.5974 45.4713C62.744 46.0585 62.8173 46.6946 62.8173 47.4042C62.8173 48.1626 62.744 48.8232 62.5485 49.4349C62.3775 50.0465 62.1087 50.5603 61.7911 50.9762C61.449 51.4166 61.0825 51.7347 60.6183 51.9793C60.1785 52.1995 59.6899 52.3219 59.1768 52.3219C58.9569 52.3219 58.737 52.3219 58.4927 52.2974C58.2484 52.2729 58.0041 52.224 57.7597 52.1506C57.5154 52.0772 57.2466 51.9549 56.9779 51.7836C56.7091 51.6368 56.4404 51.4411 56.1472 51.172V55.4535H55.2188V42.9268H56.1472V44.2725ZM56.1472 50.022C57.0023 50.9273 57.9796 51.3677 59.0791 51.3677C59.5189 51.3677 59.8854 51.2943 60.2274 51.123C60.5695 50.9518 60.8627 50.7071 61.107 50.3646C61.3513 50.0465 61.5468 49.6306 61.6934 49.1413C61.8155 48.6275 61.8888 48.0647 61.8888 47.4042C61.8888 46.1564 61.6445 45.2267 61.1803 44.5905C60.6916 43.9544 60.032 43.6364 59.1524 43.6364C58.0285 43.6364 57.0268 44.2236 56.1472 45.4469V50.022Z" fill="white"/>
<path d="M69.5111 43.6603C69.4134 43.6358 69.3156 43.6358 69.2179 43.6358C69.1202 43.6358 69.0224 43.6358 68.8758 43.6358C68.6071 43.6358 68.3383 43.6848 68.094 43.7826C67.8496 43.9049 67.6053 44.0517 67.3854 44.223C67.1411 44.3943 66.9456 44.59 66.7502 44.8347C66.5547 45.0549 66.3837 45.2751 66.2371 45.5197V52.0766H65.2842V42.9263H66.2371V44.1741C66.5058 43.856 66.7746 43.6114 67.0434 43.4156C67.2877 43.2199 67.5565 43.0731 67.8008 42.9508C68.0451 42.8529 68.2894 42.7795 68.5093 42.7306C68.7292 42.7061 68.9491 42.6816 69.1446 42.6816C69.1935 42.6816 69.2668 42.6816 69.3156 42.6816C69.3645 42.6816 69.4378 42.7061 69.5111 42.7061V43.6603Z" fill="white"/>
<path d="M72.3444 52.0769H71.3916V42.9266H72.3444V52.0769ZM72.3444 40.6023H71.3916V39.1099H72.3444V40.6023Z" fill="white"/>
<path d="M76.3034 44.2719C76.6211 43.9049 76.9143 43.6358 77.2074 43.4156C77.5006 43.1954 77.7938 43.0486 78.087 42.9263C78.3558 42.8284 78.6245 42.755 78.8689 42.7306C79.1132 42.6816 79.3575 42.6816 79.5774 42.6816C81.4587 42.6816 82.4116 43.7826 82.4116 46.009V52.0766H81.4587V46.1069C81.4587 45.6665 81.4343 45.2995 81.3366 44.9815C81.2877 44.6879 81.1411 44.4187 80.9701 44.223C80.8235 44.0273 80.6036 43.8805 80.3104 43.7826C80.0416 43.6848 79.724 43.6358 79.3331 43.6358C78.7956 43.6358 78.2825 43.7826 77.7938 44.1007C77.3052 44.3943 76.7921 44.8347 76.3034 45.3974V52.0766H75.375V42.9263H76.3034V44.2719Z" fill="white"/>
<path d="M88.4219 52.1503C88.2997 52.1747 88.1531 52.1747 88.031 52.1747C87.8844 52.1992 87.7622 52.1992 87.6156 52.1992C87.2247 52.1992 86.8826 52.1503 86.6383 52.0279C86.394 51.9056 86.1985 51.7344 86.0763 51.5142C85.9542 51.294 85.8564 51.0004 85.832 50.6578C85.7831 50.3153 85.7587 49.9239 85.7587 49.459V43.8563H84.6104V42.9265H85.7587V40.5044H86.7116V42.9265H88.202V43.8563H86.7116V49.5324C86.7116 49.9239 86.736 50.2175 86.7849 50.4376C86.8338 50.6578 86.9315 50.8536 87.0292 50.9514C87.1514 51.0982 87.2735 51.1716 87.4446 51.1961C87.5912 51.245 87.7866 51.245 87.9821 51.245C88.0798 51.245 88.1531 51.245 88.2264 51.245C88.2753 51.245 88.3486 51.245 88.4219 51.245V52.1503Z" fill="white"/>
<path d="M124.533 51.5384C124.533 52.2724 124.435 52.9085 124.289 53.4223C124.118 53.9361 123.898 54.352 123.58 54.67C123.263 55.0126 122.872 55.2328 122.407 55.3796C121.943 55.5264 121.381 55.5997 120.77 55.5997C120.233 55.5997 119.769 55.5508 119.353 55.4285C118.938 55.3306 118.596 55.1594 118.278 54.9392C117.985 54.7434 117.741 54.4743 117.57 54.1562C117.423 53.8382 117.325 53.4712 117.301 53.0797H118.229C118.278 53.618 118.498 54.0339 118.914 54.2786C119.329 54.5477 119.915 54.67 120.722 54.67C121.21 54.67 121.626 54.6211 121.968 54.4988C122.334 54.3764 122.627 54.1807 122.847 53.9361C123.092 53.6669 123.263 53.3244 123.385 52.9085C123.507 52.4681 123.58 51.9543 123.58 51.3182V50.731C123.263 51.098 122.969 51.3916 122.701 51.6118C122.432 51.8075 122.188 51.9788 121.919 52.0766C121.674 52.1745 121.43 52.2479 121.21 52.2724C120.966 52.2968 120.746 52.3213 120.526 52.3213C119.94 52.3213 119.427 52.199 118.987 51.9788C118.547 51.7341 118.181 51.416 117.887 51.0001C117.594 50.6087 117.35 50.0949 117.203 49.5077C117.057 48.9205 116.983 48.2844 116.983 47.5749C116.983 46.8164 117.057 46.1314 117.252 45.5197C117.448 44.9325 117.692 44.4187 118.01 43.9783C118.352 43.5624 118.743 43.2444 119.182 43.0242C119.622 42.804 120.111 42.6816 120.624 42.6816C120.844 42.6816 121.064 42.7061 121.308 42.7306C121.528 42.755 121.772 42.8284 122.041 42.9018C122.285 42.9752 122.53 43.0976 122.798 43.2444C123.067 43.3912 123.311 43.5624 123.58 43.7826V42.9263H124.533V51.5384ZM123.58 44.957C123.165 44.5166 122.701 44.1741 122.236 43.9539C121.797 43.7337 121.284 43.6358 120.722 43.6358C120.282 43.6358 119.915 43.7092 119.573 43.856C119.231 44.0273 118.938 44.2719 118.694 44.59C118.449 44.9325 118.254 45.3484 118.132 45.8378C117.985 46.3271 117.912 46.9143 117.912 47.5749C117.912 48.8226 118.156 49.7523 118.645 50.4129C119.109 51.0491 119.793 51.3671 120.648 51.3671C121.21 51.3671 121.748 51.2203 122.212 50.9023C122.676 50.5842 123.14 50.1193 123.58 49.5077V44.957Z" fill="white"/>
<path d="M133.597 50.9023C133.255 51.1959 132.961 51.4161 132.644 51.6118C132.326 51.7831 132.033 51.9298 131.74 52.0522C131.447 52.15 131.153 52.2234 130.86 52.2479C130.567 52.2968 130.274 52.3213 129.981 52.3213C129.565 52.3213 129.199 52.2479 128.857 52.1256C128.49 52.0032 128.197 51.832 127.953 51.6118C127.684 51.3916 127.489 51.1225 127.342 50.8044C127.195 50.4863 127.122 50.1194 127.122 49.7279C127.122 48.7003 127.586 47.8685 128.466 47.3057C129.37 46.7186 130.714 46.425 132.497 46.425H133.597C133.597 46.009 133.572 45.642 133.523 45.2995C133.475 44.957 133.352 44.6634 133.181 44.4187C133.01 44.1741 132.766 43.9783 132.424 43.8316C132.082 43.7092 131.618 43.6358 131.031 43.6358C130.176 43.6358 129.541 43.7582 129.101 44.0273C128.686 44.2964 128.417 44.7123 128.344 45.2506H127.391C127.489 44.3698 127.831 43.7337 128.417 43.3178C129.003 42.9018 129.859 42.6816 131.007 42.6816C131.667 42.6816 132.204 42.755 132.644 42.9263C133.084 43.0731 133.45 43.2933 133.743 43.5869C134.012 43.8805 134.207 44.2475 134.354 44.6634C134.476 45.1038 134.525 45.5686 134.525 46.1069V52.0766H133.597V50.9023ZM133.597 47.3547H132.155C130.787 47.3547 129.761 47.5504 129.077 47.9663C128.417 48.3578 128.075 48.9205 128.075 49.6545C128.075 50.1928 128.295 50.6087 128.71 50.9267C129.15 51.2203 129.712 51.3671 130.469 51.3671C130.787 51.3671 131.105 51.3182 131.398 51.2203C131.715 51.1225 132.009 51.0001 132.253 50.8533C132.522 50.6821 132.79 50.5108 133.01 50.3151C133.23 50.1194 133.426 49.9236 133.597 49.7524V47.3547Z" fill="white"/>
<path d="M138.679 52.0769H137.727V39.1099H138.679V52.0769Z" fill="white"/>
<path d="M142.785 52.0769H141.832V39.1099H142.785V52.0769Z" fill="white"/>
<path d="M149.528 52.3213C148.892 52.3213 148.306 52.199 147.793 52.0032C147.255 51.7831 146.816 51.465 146.449 51.0491C146.083 50.6331 145.789 50.1194 145.57 49.5322C145.374 48.9205 145.276 48.2355 145.276 47.477C145.276 46.743 145.374 46.0824 145.57 45.4708C145.765 44.8836 146.034 44.3698 146.4 43.9539C146.767 43.538 147.207 43.2444 147.695 42.9997C148.184 42.7795 148.746 42.6816 149.332 42.6816C149.967 42.6816 150.529 42.7795 151.042 42.9997C151.531 43.2199 151.971 43.538 152.313 43.9539C152.679 44.3698 152.948 44.8836 153.144 45.4708C153.315 46.058 153.412 46.743 153.412 47.477V47.6972H146.205C146.254 48.3089 146.376 48.8716 146.547 49.312C146.742 49.7768 146.962 50.1683 147.255 50.4619C147.549 50.7799 147.891 51.0001 148.257 51.1469C148.648 51.2937 149.063 51.3671 149.503 51.3671C149.821 51.3671 150.138 51.3427 150.456 51.2693C150.774 51.1959 151.042 51.0735 151.311 50.9267C151.555 50.7799 151.775 50.5842 151.946 50.364C152.117 50.1438 152.215 49.8992 152.264 49.6056H153.192C153.119 50.046 152.948 50.4374 152.753 50.7555C152.508 51.098 152.24 51.3916 151.922 51.6118C151.604 51.8565 151.238 52.0277 150.823 52.15C150.432 52.2479 149.992 52.3213 149.528 52.3213ZM152.459 46.743C152.288 45.7154 151.946 44.9325 151.384 44.3943C150.823 43.8805 150.138 43.6358 149.332 43.6358C148.941 43.6358 148.55 43.6848 148.208 43.8071C147.866 43.9294 147.573 44.1251 147.304 44.3943C147.011 44.6389 146.791 44.9815 146.596 45.3729C146.425 45.7644 146.303 46.2292 146.205 46.743H152.459Z" fill="white"/>
<path d="M160.083 43.6603C160.01 43.6358 159.912 43.6358 159.815 43.6358C159.717 43.6358 159.595 43.6358 159.472 43.6358C159.204 43.6358 158.935 43.6848 158.691 43.7826C158.446 43.9049 158.202 44.0517 157.982 44.223C157.738 44.3943 157.542 44.59 157.347 44.8347C157.151 45.0549 156.98 45.2751 156.834 45.5197V52.0766H155.881V42.9263H156.834V44.1741C157.102 43.856 157.371 43.6114 157.616 43.4156C157.884 43.2199 158.153 43.0731 158.397 42.9508C158.642 42.8529 158.886 42.7795 159.106 42.7306C159.326 42.7061 159.546 42.6816 159.717 42.6816C159.79 42.6816 159.863 42.6816 159.912 42.6816C159.961 42.6816 160.01 42.7061 160.083 42.7061V43.6603Z" fill="white"/>
<path d="M168.78 42.9268L165.458 52.2484C165.238 52.8111 165.042 53.2759 164.822 53.6919C164.627 54.1322 164.382 54.4748 164.138 54.7684C163.894 55.0375 163.625 55.2577 163.332 55.4045C163.039 55.5513 162.721 55.6002 162.355 55.6002C162.232 55.6002 162.11 55.6002 161.988 55.6002C161.866 55.6002 161.744 55.5757 161.622 55.5757V54.5482C161.695 54.5726 161.768 54.5726 161.817 54.5726C161.89 54.5726 161.964 54.5726 162.061 54.5726C162.599 54.5726 163.063 54.3769 163.454 54.0099C163.821 53.6185 164.163 53.0068 164.456 52.1505L160.986 42.9268H162.013L165.018 50.9027L167.754 42.9268H168.78Z" fill="white"/>
<path d="M108.041 51.1716L107.479 51.7344L105.867 50.1441C105.598 50.511 105.305 50.8291 105.012 51.0738C104.743 51.3429 104.45 51.5386 104.132 51.6854C103.839 51.8322 103.521 51.9546 103.204 52.0035C102.886 52.0769 102.544 52.1013 102.226 52.1013C101.738 52.1013 101.298 52.0279 100.882 51.8567C100.467 51.6854 100.101 51.4652 99.8074 51.1716C99.4898 50.878 99.2455 50.5355 99.0744 50.1196C98.879 49.7281 98.8057 49.3122 98.8057 48.8474C98.8057 47.5017 99.5631 46.3763 101.127 45.4466C100.589 44.8838 100.198 44.3945 99.954 43.9541C99.6852 43.5382 99.5631 43.1712 99.5631 42.8531C99.5631 42.4862 99.6119 42.1436 99.7585 41.85C99.8807 41.5564 100.052 41.3118 100.272 41.116C100.492 40.9203 100.736 40.7735 101.053 40.6757C101.347 40.5533 101.689 40.5044 102.031 40.5044C102.397 40.5044 102.715 40.5778 103.033 40.7001C103.326 40.8225 103.594 40.9693 103.839 41.1894C104.059 41.3852 104.23 41.6543 104.376 41.9234C104.498 42.217 104.572 42.5351 104.572 42.8531C104.572 43.0978 104.498 43.3425 104.401 43.5871C104.303 43.8073 104.132 44.052 103.937 44.2966C103.741 44.5168 103.497 44.737 103.228 44.9572C102.959 45.153 102.642 45.3487 102.3 45.52L105.647 48.8474C105.745 48.6761 105.818 48.4804 105.891 48.2602C105.964 48.04 106.038 47.7953 106.087 47.5506C106.16 47.2815 106.209 47.0124 106.233 46.7433C106.282 46.4741 106.307 46.1805 106.307 45.9114H107.088C107.064 47.2326 106.795 48.3825 106.258 49.3367L108.041 51.1716ZM101.591 45.8869C101.322 46.0582 101.053 46.2784 100.834 46.4986C100.589 46.7188 100.369 46.9635 100.198 47.2326C100.027 47.4772 99.8807 47.7464 99.783 48.0155C99.6852 48.2846 99.6119 48.5538 99.6119 48.7984C99.6119 49.1654 99.6852 49.5079 99.8318 49.8015C99.954 50.1196 100.149 50.3887 100.394 50.6089C100.638 50.8291 100.931 51.0004 101.273 51.1227C101.615 51.245 101.982 51.3184 102.397 51.3184C103.448 51.3184 104.401 50.7068 105.207 49.5079L101.591 45.8869ZM103.692 42.8531C103.692 42.3394 103.546 41.9479 103.228 41.6788C102.91 41.4096 102.495 41.2628 102.006 41.2628C101.738 41.2628 101.493 41.3118 101.298 41.4096C101.102 41.483 100.931 41.6054 100.785 41.7766C100.663 41.9234 100.565 42.0947 100.492 42.266C100.443 42.4617 100.394 42.6574 100.394 42.8531C100.394 43.0244 100.443 43.2201 100.516 43.3914C100.614 43.5871 100.736 43.7584 100.858 43.9541C101.005 44.1499 101.151 44.3211 101.322 44.4924C101.493 44.6881 101.664 44.8594 101.811 45.0306C102.08 44.8594 102.324 44.7126 102.568 44.5658C102.788 44.3945 102.984 44.2477 103.155 44.0765C103.326 43.9052 103.448 43.7339 103.546 43.5382C103.643 43.3425 103.692 43.0978 103.692 42.8531Z" fill="white"/>
<path d="M24.8721 28.9321H82.5331" stroke="#EEFF00" stroke-width="2"/>
<path d="M221.774 28.9321H219.185" stroke="#EEFF00" stroke-width="2"/>
<path d="M216.497 28.9321H200.567" stroke="#EEFF00" stroke-width="2"/>
<path d="M22.4292 28.9321H0" stroke="#EEFF00" stroke-width="2"/>
<path d="M172.348 28.9321H169.904" stroke="#EEFF00" stroke-width="2"/>
<path d="M161.231 28.9321H153.144" stroke="#EEFF00" stroke-width="2"/>
<path d="M91.0361 28.9321H138.997" stroke="#EEFF00" stroke-width="2"/>
<path d="M145.52 28.9321H143.077" stroke="#EEFF00" stroke-width="2"/>
<path d="M88.0068 28.9321H85.5635" stroke="#EEFF00"/>
<path d="M24.1642 13.2001L27.316 15.8914C27.1938 16.0382 27.0716 16.185 26.925 16.3318C25.1415 18.1178 22.9425 19.0231 20.4015 19.0231C17.885 19.0231 15.7105 18.1178 13.9024 16.3318C12.1189 14.5213 11.2148 12.3438 11.2148 9.82382C11.2148 7.25488 12.1189 5.0774 13.9024 3.29137C15.7105 1.48088 17.885 0.600098 20.4015 0.600098C22.9425 0.600098 25.1415 1.48088 26.925 3.29137C26.9495 3.31584 26.9495 3.31584 26.9983 3.3403L24.042 6.25177C23.9931 6.17837 23.9443 6.12944 23.871 6.05604C22.9181 5.02846 21.7697 4.51468 20.4015 4.51468C19.0577 4.51468 17.9094 5.02846 16.9565 6.05604C16.0036 7.08362 15.5394 8.33139 15.5394 9.79936C15.5394 11.2673 16.0036 12.5151 16.9565 13.5427C17.9094 14.5947 19.0577 15.1085 20.4015 15.1085C21.7697 15.1085 22.9181 14.5947 23.871 13.5427C23.9931 13.4203 24.0909 13.3225 24.1642 13.2001Z" fill="white"/>
<path d="M42.9034 0.600098C45.4444 0.600098 47.6189 1.48088 49.4025 3.29137C51.2105 5.0774 52.0901 7.25488 52.0901 9.82382C52.0901 12.3438 51.2105 14.5213 49.4025 16.3318C47.6189 18.1178 45.4444 19.0231 42.9034 19.0231C40.3625 19.0231 38.188 18.1178 36.4044 16.3318C34.5964 14.5213 33.7168 12.3438 33.7168 9.82382C33.7168 7.25488 34.5964 5.0774 36.4044 3.29137C38.188 1.48088 40.3625 0.600098 42.9034 0.600098ZM42.9034 4.51468C41.5597 4.51468 40.4113 5.02846 39.434 6.05604C38.4812 7.08362 38.0169 8.33139 38.0169 9.79936C38.0169 11.2673 38.4812 12.5151 39.434 13.5427C40.4113 14.5947 41.5597 15.1085 42.9034 15.1085C44.2472 15.1085 45.3956 14.5947 46.3484 13.5427C47.3013 12.5151 47.79 11.2673 47.79 9.79936C47.79 8.33139 47.3013 7.08362 46.3484 6.05604C45.3956 5.02846 44.2472 4.51468 42.9034 4.51468Z" fill="white"/>
<path d="M78.9659 1.35889V19.0234H74.7879V8.79659L69.2662 16.5524L63.7444 8.79659V19.0234H59.5664V1.35889H62.987L69.2662 9.9465L75.5698 1.35889H78.9659Z" fill="white"/>
<path d="M106.745 1.35889V19.0234H102.567V8.79659L97.0454 16.5524L91.5481 8.79659V19.0234H87.3457V1.35889H90.7907L97.0454 9.9465L103.349 1.35889H106.745Z" fill="white"/>
<path d="M125.168 1.35889H129.468V11.9527C129.468 14.0079 128.735 15.745 127.294 17.1885C125.852 18.6565 124.093 19.366 122.065 19.366C120.037 19.366 118.278 18.6565 116.837 17.1885C115.395 15.745 114.687 14.0079 114.687 11.9527V1.35889H118.962V11.7081C118.962 14.0324 119.988 15.2312 122.065 15.3291C124.142 15.2312 125.168 14.0324 125.168 11.7081V1.35889Z" fill="white"/>
<path d="M140.633 1.35889L148.867 11.7081V1.40782H153.07V18.999H149.747L141.489 8.62532V18.999H137.311V1.35889H140.633Z" fill="white"/>
<path d="M161.034 1.40771H165.261V18.9989H161.034V1.40771Z" fill="white"/>
<path d="M187.495 1.38281V5.12613H182.462V18.9984H178.211V5.12613H173.178V1.38281H187.495Z" fill="white"/>
<path d="M210.829 1.40771L204.11 12.1973V18.9989H199.907V12.1973L193.213 1.40771H197.782L202.009 8.5763L206.235 1.40771H210.829Z" fill="white"/>
<path d="M180.288 28.9321H175.401" stroke="#EEFF00" stroke-width="2"/>
<path d="M195.656 28.9321H190.794" stroke="#EEFF00" stroke-width="2"/>
</svg>
