<svg width="222" height="55" viewBox="0 0 222 55" fill="none" xmlns="http://www.w3.org/2000/svg">
<path d="M56.1472 43.6721C56.4648 43.3051 56.7336 43.0116 57.0268 42.8158C57.2955 42.5956 57.5643 42.4244 57.833 42.3265C58.1018 42.2042 58.3461 42.1308 58.5904 42.1063C58.8348 42.0818 59.0547 42.0574 59.2745 42.0574C59.8609 42.0574 60.3496 42.1797 60.7894 42.3999C61.2291 42.6201 61.6201 42.9382 61.9133 43.3541C62.2064 43.77 62.4263 44.2838 62.5974 44.871C62.744 45.4582 62.8173 46.0943 62.8173 46.8038C62.8173 47.5623 62.744 48.2229 62.5485 48.8345C62.3775 49.4462 62.1087 49.96 61.7911 50.3759C61.449 50.8163 61.0825 51.1343 60.6183 51.379C60.1785 51.5992 59.6899 51.7215 59.1768 51.7215C58.9569 51.7215 58.737 51.7215 58.4927 51.6971C58.2484 51.6726 58.0041 51.6237 57.7597 51.5503C57.5154 51.4769 57.2466 51.3545 56.9779 51.1833C56.7091 51.0365 56.4404 50.8407 56.1472 50.5716V54.8532H55.2188V42.3265H56.1472V43.6721ZM56.1472 49.4217C57.0023 50.3269 57.9796 50.7673 59.0791 50.7673C59.5189 50.7673 59.8854 50.6939 60.2274 50.5227C60.5695 50.3514 60.8627 50.1068 61.107 49.7642C61.3513 49.4462 61.5468 49.0302 61.6934 48.5409C61.8155 48.0271 61.8888 47.4644 61.8888 46.8038C61.8888 45.556 61.6445 44.6263 61.1803 43.9902C60.6916 43.3541 60.032 43.036 59.1524 43.036C58.0285 43.036 57.0268 43.6232 56.1472 44.8465V49.4217Z" fill="#1F1B20"/>
<path d="M69.5111 43.0602C69.4134 43.0357 69.3156 43.0357 69.2179 43.0357C69.1202 43.0357 69.0224 43.0357 68.8758 43.0357C68.6071 43.0357 68.3383 43.0847 68.094 43.1825C67.8496 43.3048 67.6053 43.4516 67.3854 43.6229C67.1411 43.7942 66.9456 43.9899 66.7502 44.2346C66.5547 44.4548 66.3837 44.675 66.2371 44.9196V51.4765H65.2842V42.3262H66.2371V43.574C66.5058 43.2559 66.7746 43.0113 67.0434 42.8155C67.2877 42.6198 67.5565 42.473 67.8008 42.3507C68.0451 42.2528 68.2894 42.1794 68.5093 42.1305C68.7292 42.106 68.9491 42.0815 69.1446 42.0815C69.1935 42.0815 69.2668 42.0815 69.3156 42.0815C69.3645 42.0815 69.4378 42.106 69.5111 42.106V43.0602Z" fill="#1F1B20"/>
<path d="M72.3444 51.4768H71.3916V42.3265H72.3444V51.4768ZM72.3444 40.0022H71.3916V38.5098H72.3444V40.0022Z" fill="#1F1B20"/>
<path d="M76.3034 43.6718C76.6211 43.3048 76.9143 43.0357 77.2074 42.8155C77.5006 42.5953 77.7938 42.4485 78.087 42.3262C78.3558 42.2283 78.6245 42.1549 78.8689 42.1305C79.1132 42.0815 79.3575 42.0815 79.5774 42.0815C81.4587 42.0815 82.4116 43.1825 82.4116 45.4089V51.4765H81.4587V45.5068C81.4587 45.0664 81.4343 44.6994 81.3366 44.3814C81.2877 44.0878 81.1411 43.8186 80.9701 43.6229C80.8235 43.4272 80.6036 43.2804 80.3104 43.1825C80.0416 43.0847 79.724 43.0357 79.3331 43.0357C78.7956 43.0357 78.2825 43.1825 77.7938 43.5006C77.3052 43.7942 76.7921 44.2346 76.3034 44.7973V51.4765H75.375V42.3262H76.3034V43.6718Z" fill="#1F1B20"/>
<path d="M88.4219 51.5502C88.2997 51.5746 88.1531 51.5746 88.031 51.5746C87.8844 51.5991 87.7622 51.5991 87.6156 51.5991C87.2247 51.5991 86.8826 51.5502 86.6383 51.4279C86.394 51.3055 86.1985 51.1343 86.0763 50.9141C85.9542 50.6939 85.8564 50.4003 85.832 50.0577C85.7831 49.7152 85.7587 49.3238 85.7587 48.8589V43.2562H84.6104V42.3264H85.7587V39.9043H86.7116V42.3264H88.202V43.2562H86.7116V48.9323C86.7116 49.3238 86.736 49.6174 86.7849 49.8376C86.8338 50.0577 86.9315 50.2535 87.0292 50.3513C87.1514 50.4981 87.2735 50.5715 87.4446 50.596C87.5912 50.6449 87.7866 50.6449 87.9821 50.6449C88.0798 50.6449 88.1531 50.6449 88.2264 50.6449C88.2753 50.6449 88.3486 50.6449 88.4219 50.6449V51.5502Z" fill="#1F1B20"/>
<path d="M124.533 50.9383C124.533 51.6723 124.435 52.3084 124.289 52.8222C124.118 53.336 123.898 53.7519 123.58 54.0699C123.263 54.4125 122.872 54.6327 122.407 54.7795C121.943 54.9263 121.381 54.9997 120.77 54.9997C120.233 54.9997 119.769 54.9507 119.353 54.8284C118.938 54.7305 118.596 54.5593 118.278 54.3391C117.985 54.1433 117.741 53.8742 117.57 53.5561C117.423 53.2381 117.325 52.8711 117.301 52.4796H118.229C118.278 53.0179 118.498 53.4338 118.914 53.6785C119.329 53.9476 119.915 54.0699 120.722 54.0699C121.21 54.0699 121.626 54.021 121.968 53.8987C122.334 53.7763 122.627 53.5806 122.847 53.336C123.092 53.0668 123.263 52.7243 123.385 52.3084C123.507 51.868 123.58 51.3542 123.58 50.7181V50.1309C123.263 50.4979 122.969 50.7915 122.701 51.0117C122.432 51.2074 122.188 51.3787 121.919 51.4765C121.674 51.5744 121.43 51.6478 121.21 51.6723C120.966 51.6967 120.746 51.7212 120.526 51.7212C119.94 51.7212 119.427 51.5989 118.987 51.3787C118.547 51.134 118.181 50.8159 117.887 50.4C117.594 50.0086 117.35 49.4948 117.203 48.9076C117.057 48.3204 116.983 47.6843 116.983 46.9748C116.983 46.2163 117.057 45.5313 117.252 44.9196C117.448 44.3324 117.692 43.8186 118.01 43.3782C118.352 42.9623 118.743 42.6443 119.182 42.4241C119.622 42.2039 120.111 42.0815 120.624 42.0815C120.844 42.0815 121.064 42.106 121.308 42.1305C121.528 42.1549 121.772 42.2283 122.041 42.3017C122.285 42.3751 122.53 42.4975 122.798 42.6443C123.067 42.7911 123.311 42.9623 123.58 43.1825V42.3262H124.533V50.9383ZM123.58 44.3569C123.165 43.9165 122.701 43.574 122.236 43.3538C121.797 43.1336 121.284 43.0357 120.722 43.0357C120.282 43.0357 119.915 43.1091 119.573 43.2559C119.231 43.4272 118.938 43.6718 118.694 43.9899C118.449 44.3324 118.254 44.7483 118.132 45.2377C117.985 45.727 117.912 46.3142 117.912 46.9748C117.912 48.2225 118.156 49.1522 118.645 49.8128C119.109 50.449 119.793 50.767 120.648 50.767C121.21 50.767 121.748 50.6202 122.212 50.3022C122.676 49.9841 123.14 49.5192 123.58 48.9076V44.3569Z" fill="#1F1B20"/>
<path d="M133.597 50.3022C133.255 50.5958 132.961 50.816 132.644 51.0117C132.326 51.183 132.033 51.3298 131.74 51.4521C131.447 51.5499 131.153 51.6233 130.86 51.6478C130.567 51.6967 130.274 51.7212 129.981 51.7212C129.565 51.7212 129.199 51.6478 128.857 51.5255C128.49 51.4032 128.197 51.2319 127.953 51.0117C127.684 50.7915 127.489 50.5224 127.342 50.2043C127.195 49.8862 127.122 49.5193 127.122 49.1278C127.122 48.1002 127.586 47.2684 128.466 46.7056C129.37 46.1185 130.714 45.8249 132.497 45.8249H133.597C133.597 45.4089 133.572 45.0419 133.523 44.6994C133.475 44.3569 133.352 44.0633 133.181 43.8186C133.01 43.574 132.766 43.3782 132.424 43.2315C132.082 43.1091 131.618 43.0357 131.031 43.0357C130.176 43.0357 129.541 43.1581 129.101 43.4272C128.686 43.6963 128.417 44.1122 128.344 44.6505H127.391C127.489 43.7697 127.831 43.1336 128.417 42.7177C129.003 42.3017 129.859 42.0815 131.007 42.0815C131.667 42.0815 132.204 42.1549 132.644 42.3262C133.084 42.473 133.45 42.6932 133.743 42.9868C134.012 43.2804 134.207 43.6474 134.354 44.0633C134.476 44.5037 134.525 44.9685 134.525 45.5068V51.4765H133.597V50.3022ZM133.597 46.7546H132.155C130.787 46.7546 129.761 46.9503 129.077 47.3662C128.417 47.7577 128.075 48.3204 128.075 49.0544C128.075 49.5927 128.295 50.0086 128.71 50.3266C129.15 50.6202 129.712 50.767 130.469 50.767C130.787 50.767 131.105 50.7181 131.398 50.6202C131.715 50.5224 132.009 50.4 132.253 50.2532C132.522 50.082 132.79 49.9107 133.01 49.715C133.23 49.5193 133.426 49.3235 133.597 49.1523V46.7546Z" fill="#1F1B20"/>
<path d="M138.679 51.4768H137.727V38.5098H138.679V51.4768Z" fill="#1F1B20"/>
<path d="M142.785 51.4768H141.832V38.5098H142.785V51.4768Z" fill="#1F1B20"/>
<path d="M149.528 51.7212C148.892 51.7212 148.306 51.5989 147.793 51.4032C147.255 51.183 146.816 50.8649 146.449 50.449C146.083 50.033 145.789 49.5193 145.57 48.9321C145.374 48.3204 145.276 47.6354 145.276 46.8769C145.276 46.1429 145.374 45.4823 145.57 44.8707C145.765 44.2835 146.034 43.7697 146.4 43.3538C146.767 42.9379 147.207 42.6443 147.695 42.3996C148.184 42.1794 148.746 42.0815 149.332 42.0815C149.967 42.0815 150.529 42.1794 151.042 42.3996C151.531 42.6198 151.971 42.9379 152.313 43.3538C152.679 43.7697 152.948 44.2835 153.144 44.8707C153.315 45.4579 153.412 46.1429 153.412 46.8769V47.0971H146.205C146.254 47.7088 146.376 48.2715 146.547 48.7119C146.742 49.1767 146.962 49.5682 147.255 49.8618C147.549 50.1798 147.891 50.4 148.257 50.5468C148.648 50.6936 149.063 50.767 149.503 50.767C149.821 50.767 150.138 50.7426 150.456 50.6692C150.774 50.5958 151.042 50.4734 151.311 50.3266C151.555 50.1798 151.775 49.9841 151.946 49.7639C152.117 49.5437 152.215 49.2991 152.264 49.0055H153.192C153.119 49.4459 152.948 49.8373 152.753 50.1554C152.508 50.4979 152.24 50.7915 151.922 51.0117C151.604 51.2564 151.238 51.4276 150.823 51.5499C150.432 51.6478 149.992 51.7212 149.528 51.7212ZM152.459 46.1429C152.288 45.1153 151.946 44.3324 151.384 43.7942C150.823 43.2804 150.138 43.0357 149.332 43.0357C148.941 43.0357 148.55 43.0847 148.208 43.207C147.866 43.3293 147.573 43.525 147.304 43.7942C147.011 44.0388 146.791 44.3814 146.596 44.7728C146.425 45.1643 146.303 45.6291 146.205 46.1429H152.459Z" fill="#1F1B20"/>
<path d="M160.083 43.0602C160.01 43.0357 159.912 43.0357 159.815 43.0357C159.717 43.0357 159.595 43.0357 159.472 43.0357C159.204 43.0357 158.935 43.0847 158.691 43.1825C158.446 43.3048 158.202 43.4516 157.982 43.6229C157.738 43.7942 157.542 43.9899 157.347 44.2346C157.151 44.4548 156.98 44.675 156.834 44.9196V51.4765H155.881V42.3262H156.834V43.574C157.102 43.2559 157.371 43.0113 157.616 42.8155C157.884 42.6198 158.153 42.473 158.397 42.3507C158.642 42.2528 158.886 42.1794 159.106 42.1305C159.326 42.106 159.546 42.0815 159.717 42.0815C159.79 42.0815 159.863 42.0815 159.912 42.0815C159.961 42.0815 160.01 42.106 160.083 42.106V43.0602Z" fill="#1F1B20"/>
<path d="M168.78 42.3267L165.458 51.6483C165.238 52.211 165.042 52.6758 164.822 53.0918C164.627 53.5321 164.382 53.8747 164.138 54.1683C163.894 54.4374 163.625 54.6576 163.332 54.8044C163.039 54.9512 162.721 55.0001 162.355 55.0001C162.232 55.0001 162.11 55.0001 161.988 55.0001C161.866 55.0001 161.744 54.9756 161.622 54.9756V53.9481C161.695 53.9725 161.768 53.9725 161.817 53.9725C161.89 53.9725 161.964 53.9725 162.061 53.9725C162.599 53.9725 163.063 53.7768 163.454 53.4098C163.821 53.0184 164.163 52.4067 164.456 51.5504L160.986 42.3267H162.013L165.018 50.3026L167.754 42.3267H168.78Z" fill="#1F1B20"/>
<path d="M108.041 50.5715L107.479 51.1343L105.867 49.544C105.598 49.911 105.305 50.229 105.012 50.4737C104.743 50.7428 104.45 50.9385 104.132 51.0853C103.839 51.2321 103.521 51.3545 103.204 51.4034C102.886 51.4768 102.544 51.5013 102.226 51.5013C101.738 51.5013 101.298 51.4279 100.882 51.2566C100.467 51.0853 100.101 50.8651 99.8074 50.5715C99.4898 50.2779 99.2455 49.9354 99.0744 49.5195C98.879 49.128 98.8057 48.7121 98.8057 48.2473C98.8057 46.9016 99.5631 45.7762 101.127 44.8465C100.589 44.2837 100.198 43.7944 99.954 43.354C99.6852 42.9381 99.5631 42.5711 99.5631 42.253C99.5631 41.8861 99.6119 41.5435 99.7585 41.2499C99.8807 40.9563 100.052 40.7117 100.272 40.516C100.492 40.3202 100.736 40.1734 101.053 40.0756C101.347 39.9532 101.689 39.9043 102.031 39.9043C102.397 39.9043 102.715 39.9777 103.033 40.1C103.326 40.2224 103.594 40.3692 103.839 40.5893C104.059 40.7851 104.23 41.0542 104.376 41.3233C104.498 41.6169 104.572 41.935 104.572 42.253C104.572 42.4977 104.498 42.7424 104.401 42.987C104.303 43.2072 104.132 43.4519 103.937 43.6965C103.741 43.9167 103.497 44.1369 103.228 44.3571C102.959 44.5529 102.642 44.7486 102.3 44.9199L105.647 48.2473C105.745 48.076 105.818 47.8803 105.891 47.6601C105.964 47.4399 106.038 47.1952 106.087 46.9505C106.16 46.6814 106.209 46.4123 106.233 46.1432C106.282 45.874 106.307 45.5804 106.307 45.3113H107.088C107.064 46.6325 106.795 47.7824 106.258 48.7366L108.041 50.5715ZM101.591 45.2868C101.322 45.4581 101.053 45.6783 100.834 45.8985C100.589 46.1187 100.369 46.3634 100.198 46.6325C100.027 46.8771 99.8807 47.1463 99.783 47.4154C99.6852 47.6845 99.6119 47.9537 99.6119 48.1983C99.6119 48.5653 99.6852 48.9078 99.8318 49.2014C99.954 49.5195 100.149 49.7886 100.394 50.0088C100.638 50.229 100.931 50.4003 101.273 50.5226C101.615 50.6449 101.982 50.7183 102.397 50.7183C103.448 50.7183 104.401 50.1067 105.207 48.9078L101.591 45.2868ZM103.692 42.253C103.692 41.7393 103.546 41.3478 103.228 41.0787C102.91 40.8095 102.495 40.6627 102.006 40.6627C101.738 40.6627 101.493 40.7117 101.298 40.8095C101.102 40.8829 100.931 41.0053 100.785 41.1765C100.663 41.3233 100.565 41.4946 100.492 41.6659C100.443 41.8616 100.394 42.0573 100.394 42.253C100.394 42.4243 100.443 42.62 100.516 42.7913C100.614 42.987 100.736 43.1583 100.858 43.354C101.005 43.5498 101.151 43.721 101.322 43.8923C101.493 44.088 101.664 44.2593 101.811 44.4305C102.08 44.2593 102.324 44.1125 102.568 43.9657C102.788 43.7944 102.984 43.6476 103.155 43.4764C103.326 43.3051 103.448 43.1338 103.546 42.9381C103.643 42.7424 103.692 42.4977 103.692 42.253Z" fill="#1F1B20"/>
<path fill-rule="evenodd" clip-rule="evenodd" d="M82.5331 29.332H24.8721V27.332H82.5331V29.332Z" fill="#EEFF00"/>
<path fill-rule="evenodd" clip-rule="evenodd" d="M219.185 27.332H221.774V29.332H219.185V27.332Z" fill="#EEFF00"/>
<path fill-rule="evenodd" clip-rule="evenodd" d="M200.567 27.332H216.497V29.332H200.567V27.332Z" fill="#EEFF00"/>
<path fill-rule="evenodd" clip-rule="evenodd" d="M0 27.332H22.4292V29.332H0V27.332Z" fill="#EEFF00"/>
<path fill-rule="evenodd" clip-rule="evenodd" d="M169.904 27.332H172.348V29.332H169.904V27.332Z" fill="#EEFF00"/>
<path fill-rule="evenodd" clip-rule="evenodd" d="M153.144 27.332H161.231V29.332H153.144V27.332Z" fill="#EEFF00"/>
<path fill-rule="evenodd" clip-rule="evenodd" d="M138.997 29.332H91.0361V27.332H138.997V29.332Z" fill="#EEFF00"/>
<path fill-rule="evenodd" clip-rule="evenodd" d="M143.077 27.332H145.52V29.332H143.077V27.332Z" fill="#EEFF00"/>
<path fill-rule="evenodd" clip-rule="evenodd" d="M85.5635 27.832H88.0068V28.832H85.5635V27.832Z" fill="#EEFF00"/>
<path d="M24.1642 12.6001L27.316 15.2913C27.1938 15.4381 27.0716 15.5849 26.925 15.7317C25.1415 17.5177 22.9425 18.423 20.4015 18.423C17.885 18.423 15.7105 17.5177 13.9024 15.7317C12.1189 13.9212 11.2148 11.7437 11.2148 9.22373C11.2148 6.65478 12.1189 4.4773 13.9024 2.69127C15.7105 0.88078 17.885 0 20.4015 0C22.9425 0 25.1415 0.88078 26.925 2.69127C26.9495 2.71574 26.9495 2.71574 26.9983 2.74021L24.042 5.65167C23.9931 5.57827 23.9443 5.52934 23.871 5.45594C22.9181 4.42837 21.7697 3.91458 20.4015 3.91458C19.0577 3.91458 17.9094 4.42837 16.9565 5.45594C16.0036 6.48352 15.5394 7.73129 15.5394 9.19926C15.5394 10.6672 16.0036 11.915 16.9565 12.9426C17.9094 13.9946 19.0577 14.5084 20.4015 14.5084C21.7697 14.5084 22.9181 13.9946 23.871 12.9426C23.9931 12.8202 24.0909 12.7224 24.1642 12.6001Z" fill="#1F1B20"/>
<path d="M42.9034 0C45.4444 0 47.6189 0.88078 49.4025 2.69127C51.2105 4.4773 52.0901 6.65478 52.0901 9.22373C52.0901 11.7437 51.2105 13.9212 49.4025 15.7317C47.6189 17.5177 45.4444 18.423 42.9034 18.423C40.3625 18.423 38.188 17.5177 36.4044 15.7317C34.5964 13.9212 33.7168 11.7437 33.7168 9.22373C33.7168 6.65478 34.5964 4.4773 36.4044 2.69127C38.188 0.88078 40.3625 0 42.9034 0ZM42.9034 3.91458C41.5597 3.91458 40.4113 4.42837 39.434 5.45594C38.4812 6.48352 38.0169 7.73129 38.0169 9.19926C38.0169 10.6672 38.4812 11.915 39.434 12.9426C40.4113 13.9946 41.5597 14.5084 42.9034 14.5084C44.2472 14.5084 45.3956 13.9946 46.3484 12.9426C47.3013 11.915 47.79 10.6672 47.79 9.19926C47.79 7.73129 47.3013 6.48352 46.3484 5.45594C45.3956 4.42837 44.2472 3.91458 42.9034 3.91458Z" fill="#1F1B20"/>
<path d="M78.9659 0.758789V18.4233H74.7879V8.19649L69.2662 15.9523L63.7444 8.19649V18.4233H59.5664V0.758789H62.987L69.2662 9.3464L75.5698 0.758789H78.9659Z" fill="#1F1B20"/>
<path d="M106.745 0.758789V18.4233H102.567V8.19649L97.0454 15.9523L91.5481 8.19649V18.4233H87.3457V0.758789H90.7907L97.0454 9.3464L103.349 0.758789H106.745Z" fill="#1F1B20"/>
<path d="M125.168 0.758789H129.468V11.3526C129.468 13.4078 128.735 15.1449 127.294 16.5884C125.852 18.0564 124.093 18.7659 122.065 18.7659C120.037 18.7659 118.278 18.0564 116.837 16.5884C115.395 15.1449 114.687 13.4078 114.687 11.3526V0.758789H118.962V11.108C118.962 13.4323 119.988 14.6311 122.065 14.729C124.142 14.6311 125.168 13.4323 125.168 11.108V0.758789Z" fill="#1F1B20"/>
<path d="M140.633 0.758789L148.867 11.108V0.807721H153.07V18.3989H149.747L141.489 8.02522V18.3989H137.311V0.758789H140.633Z" fill="#1F1B20"/>
<path d="M161.034 0.807617H165.261V18.3988H161.034V0.807617Z" fill="#1F1B20"/>
<path d="M187.495 0.782959V4.52628H182.462V18.3986H178.211V4.52628H173.178V0.782959H187.495Z" fill="#1F1B20"/>
<path d="M210.829 0.807617L204.11 11.5972V18.3988H199.907V11.5972L193.213 0.807617H197.782L202.009 7.9762L206.235 0.807617H210.829Z" fill="#2B2A29"/>
<path fill-rule="evenodd" clip-rule="evenodd" d="M175.401 27.332H180.288V29.332H175.401V27.332Z" fill="#EEFF00"/>
<path fill-rule="evenodd" clip-rule="evenodd" d="M190.794 27.332H195.656V29.332H190.794V27.332Z" fill="#EEFF00"/>
</svg>
