<svg width="1310" height="674" fill="none" xmlns="http://www.w3.org/2000/svg"><path d="M1043 262.112V0M67.523 672h52.7m80.632 0h148.351m523.576 0h-51.646m182.604 0h-26.352M42 2H1m303.672 0h-26.35m495.907 0H410.072M121.805 2h-52.7M3 88V1M2 674V436m1041 238V554.698M1043 674V554.698m0-40.269v-42.62m0 42.62v-42.62M601.636 672h108.298M1043 2H850.908m-25.822 0h-26.351M1043 359.048v-77.521m0 77.521v-77.521M1308 265V87M890.6 538.028h22.55m-22.55 0h22.55m34.501 0h63.479m-63.479 0h63.479m224.03 0h-22.09m78.13-.113h-11.28M879 89h-18m131.074 0h-11.275m212.191 0h-155.82m-123.344 0h-22.55M863 539.752V382.796m445 156.956v-76.466m0-27.342v-28.811m-188.86 130.895h46.34m-46.34 0h46.34M1308 89h-82.2m-11.04 0h-11.28M1308 330.908v-52.404" stroke="#EF0" stroke-width="4"/></svg>