<svg width="726" height="393" fill="none" xmlns="http://www.w3.org/2000/svg"><path d="M577.611 153.056V1M38.748 390.84h29.113m44.541 0h81.951m289.228 0h-28.53m100.871 0h-14.556M24.649 2.16H2m167.751 0h-14.556m273.945 0H227.976m-159.242 0H39.622M3.105 52.05V1.58M2.552 392V253.932M577.611 392v-69.209m0 69.209v-69.209m0-23.361v-24.725m0 24.725v-24.725M333.797 390.84h59.826M577.611 2.16H471.498m-14.265 0h-14.556m134.934 207.131v-44.972m0 44.972v-44.972M724 154.731V51.471M493.424 313.12h12.457m-12.457 0h12.457m19.058 0h35.066m-35.066 0h35.066m123.76 0h-12.208m43.163-.065h-6.229M487.016 52.63h-9.943m72.406 0h-6.229m117.219 0h-86.076m-68.138 0h-12.457m-15.62 261.49v-91.053M724 314.12v-44.359m0-15.862v-16.713M619.674 313.12h25.599m-25.599 0h25.599M724 52.63h-45.405m-6.104 0h-6.228M724 192.966v-30.401" stroke="#EF0" stroke-width="4"/></svg>