<svg width="726" height="393" fill="none" xmlns="http://www.w3.org/2000/svg"><path d="M148.389 153.056V1m538.863 389.84H658.14m-44.542 0h-81.951m-289.228 0h28.53m-100.871 0h14.556M701.351 2.16H724m-167.752 0h14.556m-273.944 0h201.164m159.242 0h29.112m36.517 49.89V1.58m.553 390.42V253.932M148.389 392v-69.209m0 69.209v-69.209m0-23.361v-24.725m0 24.725v-24.725M392.203 390.84h-59.826M148.389 2.16h106.113m14.265 0h14.556M148.389 209.291v-44.972m0 44.972v-44.972M2 154.731V51.471M232.576 313.12h-12.457m12.457 0h-12.457m-19.059 0h-35.066m35.066 0h-35.066m-123.759 0h12.208m-43.163-.065h6.229M238.984 52.63h9.943m-72.406 0h6.228m-117.219 0h86.077m68.138 0h12.457m15.62 34.228V53.79m0 260.33v-91.053M2 314.12v-44.359m0-15.862v-16.714m104.327 75.935h-25.6m25.6 0h-25.6M2 52.63h45.405m6.105 0h6.228M2 192.966v-30.401" stroke="#EF0" stroke-width="4"/></svg>