<svg width="1310" height="674" fill="none" xmlns="http://www.w3.org/2000/svg"><path d="M267 262.112V0m975.48 672h-52.7m-80.64 0H960.794m-523.576 0h51.646m-182.602 0h26.35M1268 2h41m-303.67 0h26.35M535.771 2h364.157m288.262 0h52.7M1307 88V1m1 673V436M267 674V554.698M267 674V554.698m0-40.269v-42.62m0 42.62v-42.62M708.364 672H600.066M267 2h192.092m25.822 0h26.351M267 359.048v-77.521m0 77.521v-77.521M2 265V87m417.4 451.028h-22.55m22.55 0h-22.55m-34.501 0H298.87m63.479 0H298.87m-224.035 0h22.1m-78.135-.113h11.275M431 89h18m-131.074 0h11.275m-212.195 0h155.82m123.348 0h22.55M447 148V91m0 448.752V382.796M2 539.752v-76.466m0-27.342v-28.811m188.857 130.895h-46.34m46.34 0h-46.34M2 89h82.195m11.049 0h11.276M2 330.908v-52.404" stroke="#EF0" stroke-width="4"/></svg>