<svg width="626" height="1025" viewBox="0 0 626 1025" fill="none" xmlns="http://www.w3.org/2000/svg">
<path d="M624 402.945L624 0.0273438" stroke="#EEFF00" stroke-width="4"/>
<path d="M41.333 1022.95H72.8115" stroke="#EEFF00" stroke-width="4"/>
<path d="M120.974 1022.95H209.586" stroke="#EEFF00" stroke-width="4"/>
<path d="M522.327 1022.95H491.478" stroke="#EEFF00" stroke-width="4"/>
<path d="M600.548 1022.95H584.809" stroke="#EEFF00" stroke-width="4"/>
<path d="M25.4899 2.0177L1 2.0177" stroke="#EEFF00" stroke-width="4"/>
<path d="M182.985 2.0177H167.246" stroke="#EEFF00" stroke-width="4"/>
<path d="M463.459 2.0177H245.942" stroke="#EEFF00" stroke-width="4"/>
<path d="M73.7568 2.0177H42.2783" stroke="#EEFF00" stroke-width="4"/>
<path d="M2.00001 134.175L2 0" stroke="#EEFF00" stroke-width="4"/>
<path d="M1.99998 1025L2 668.883" stroke="#EEFF00" stroke-width="4"/>
<path d="M624 1024.97L624 851.481" stroke="#EEFF00" stroke-width="4"/>
<path d="M624 789.796V724.281" stroke="#EEFF00" stroke-width="4"/>
<path d="M624 789.796V724.281" stroke="#EEFF00" stroke-width="4"/>
<path d="M360.367 1022.95H425.056" stroke="#EEFF00" stroke-width="4"/>
<path d="M624.001 2.0177H509.262" stroke="#EEFF00" stroke-width="4"/>
<path d="M493.836 2.0177H478.097" stroke="#EEFF00" stroke-width="4"/>
<path d="M624 550.947V431.781" stroke="#EEFF00" stroke-width="4"/>
<path d="M624 550.947V431.781" stroke="#EEFF00" stroke-width="4"/>
</svg>
