<svg width="626" height="699" viewBox="0 0 626 699" fill="none" xmlns="http://www.w3.org/2000/svg">
<path d="M624 275.384L624 1" stroke="#EEFF00" stroke-width="4"/>
<path d="M41.332 696.913H72.8105" stroke="#EEFF00" stroke-width="4"/>
<path d="M41.332 696.913H72.8105" stroke="#EEFF00" stroke-width="4"/>
<path d="M120.974 696.913H209.586" stroke="#EEFF00" stroke-width="4"/>
<path d="M120.974 696.913H209.586" stroke="#EEFF00" stroke-width="4"/>
<path d="M522.327 696.913H491.478" stroke="#EEFF00" stroke-width="4"/>
<path d="M522.327 696.913H491.478" stroke="#EEFF00" stroke-width="4"/>
<path d="M600.548 696.738H584.809" stroke="#EEFF00" stroke-width="4"/>
<path d="M600.548 696.738H584.809" stroke="#EEFF00" stroke-width="4"/>
<path d="M25.4899 2.92481L1 2.9248" stroke="#EEFF00" stroke-width="4"/>
<path d="M182.985 2.56055H167.246" stroke="#EEFF00" stroke-width="4"/>
<path d="M463.459 2.56055H245.942" stroke="#EEFF00" stroke-width="4"/>
<path d="M73.7559 2.56055H42.2773" stroke="#EEFF00" stroke-width="4"/>
<path d="M2.1416 92.4955V5.54761" stroke="#EEFF00" stroke-width="4"/>
<path d="M1.99998 699L2 456.486" stroke="#EEFF00" stroke-width="4"/>
<path d="M624 698.313L624 580.835" stroke="#EEFF00" stroke-width="4"/>
<path d="M624 698.313L624 580.835" stroke="#EEFF00" stroke-width="4"/>
<path d="M624 538.828V494.212" stroke="#EEFF00" stroke-width="4"/>
<path d="M624 538.828V494.212" stroke="#EEFF00" stroke-width="4"/>
<path d="M360.367 696.913H425.056" stroke="#EEFF00" stroke-width="4"/>
<path d="M360.367 696.913H425.056" stroke="#EEFF00" stroke-width="4"/>
<path d="M624.001 2.56055H509.262" stroke="#EEFF00" stroke-width="4"/>
<path d="M493.836 2.73633H478.097" stroke="#EEFF00" stroke-width="4"/>
<path d="M624 376.173V295.021" stroke="#EEFF00" stroke-width="4"/>
<path d="M624 376.173V295.021" stroke="#EEFF00" stroke-width="4"/>
</svg>
